%TF.GenerationSoftware,KiCad,Pcbnew,(6.0.7)*%
%TF.CreationDate,2022-10-27T13:02:41+02:00*%
%TF.ProjectId,UniMini,556e694d-696e-4692-9e6b-696361645f70,rev?*%
%TF.SameCoordinates,Original*%
%TF.FileFunction,Legend,Top*%
%TF.FilePolarity,Positive*%
%FSLAX46Y46*%
G04 Gerber Fmt 4.6, Leading zero omitted, Abs format (unit mm)*
G04 Created by KiCad (PCBNEW (6.0.7)) date 2022-10-27 13:02:41*
%MOMM*%
%LPD*%
G01*
G04 APERTURE LIST*
%ADD10C,0.100000*%
%ADD11C,0.150000*%
%ADD12C,0.127000*%
%ADD13C,0.120000*%
%ADD14C,0.203200*%
G04 APERTURE END LIST*
D10*
X68757142Y-80009523D02*
X68757142Y-79400000D01*
X68757142Y-77190476D02*
X68757142Y-76580952D01*
X69061904Y-76885714D02*
X68452380Y-76885714D01*
X69023809Y-74409523D02*
X69061904Y-74295238D01*
X69061904Y-74104761D01*
X69023809Y-74028571D01*
X68985714Y-73990476D01*
X68909523Y-73952380D01*
X68833333Y-73952380D01*
X68757142Y-73990476D01*
X68719047Y-74028571D01*
X68680952Y-74104761D01*
X68642857Y-74257142D01*
X68604761Y-74333333D01*
X68566666Y-74371428D01*
X68490476Y-74409523D01*
X68414285Y-74409523D01*
X68338095Y-74371428D01*
X68300000Y-74333333D01*
X68261904Y-74257142D01*
X68261904Y-74066666D01*
X68300000Y-73952380D01*
X82690476Y-81200000D02*
X82614285Y-81161904D01*
X82500000Y-81161904D01*
X82385714Y-81200000D01*
X82309523Y-81276190D01*
X82271428Y-81352380D01*
X82233333Y-81504761D01*
X82233333Y-81619047D01*
X82271428Y-81771428D01*
X82309523Y-81847619D01*
X82385714Y-81923809D01*
X82500000Y-81961904D01*
X82576190Y-81961904D01*
X82690476Y-81923809D01*
X82728571Y-81885714D01*
X82728571Y-81619047D01*
X82576190Y-81619047D01*
X83071428Y-81961904D02*
X83071428Y-81161904D01*
X83528571Y-81961904D01*
X83528571Y-81161904D01*
X83909523Y-81961904D02*
X83909523Y-81161904D01*
X84100000Y-81161904D01*
X84214285Y-81200000D01*
X84290476Y-81276190D01*
X84328571Y-81352380D01*
X84366666Y-81504761D01*
X84366666Y-81619047D01*
X84328571Y-81771428D01*
X84290476Y-81847619D01*
X84214285Y-81923809D01*
X84100000Y-81961904D01*
X83909523Y-81961904D01*
D11*
X55661904Y-74742857D02*
X54138095Y-74742857D01*
X94861904Y-84642857D02*
X93338095Y-84642857D01*
X94100000Y-85404761D02*
X94100000Y-83880952D01*
X94861904Y-87342857D02*
X93338095Y-87342857D01*
X55761904Y-77342857D02*
X54238095Y-77342857D01*
X55000000Y-78104761D02*
X55000000Y-76580952D01*
X66833333Y-70852380D02*
X67023809Y-70852380D01*
X67119047Y-70900000D01*
X67214285Y-70995238D01*
X67261904Y-71185714D01*
X67261904Y-71519047D01*
X67214285Y-71709523D01*
X67119047Y-71804761D01*
X67023809Y-71852380D01*
X66833333Y-71852380D01*
X66738095Y-71804761D01*
X66642857Y-71709523D01*
X66595238Y-71519047D01*
X66595238Y-71185714D01*
X66642857Y-70995238D01*
X66738095Y-70900000D01*
X66833333Y-70852380D01*
X67547619Y-71185714D02*
X67928571Y-71185714D01*
X67690476Y-71852380D02*
X67690476Y-70995238D01*
X67738095Y-70900000D01*
X67833333Y-70852380D01*
X67928571Y-70852380D01*
X68119047Y-71185714D02*
X68500000Y-71185714D01*
X68261904Y-71852380D02*
X68261904Y-70995238D01*
X68309523Y-70900000D01*
X68404761Y-70852380D01*
X68500000Y-70852380D01*
X62961904Y-81752380D02*
X62628571Y-81276190D01*
X62390476Y-81752380D02*
X62390476Y-80752380D01*
X62771428Y-80752380D01*
X62866666Y-80800000D01*
X62914285Y-80847619D01*
X62961904Y-80942857D01*
X62961904Y-81085714D01*
X62914285Y-81180952D01*
X62866666Y-81228571D01*
X62771428Y-81276190D01*
X62390476Y-81276190D01*
X63771428Y-81704761D02*
X63676190Y-81752380D01*
X63485714Y-81752380D01*
X63390476Y-81704761D01*
X63342857Y-81609523D01*
X63342857Y-81228571D01*
X63390476Y-81133333D01*
X63485714Y-81085714D01*
X63676190Y-81085714D01*
X63771428Y-81133333D01*
X63819047Y-81228571D01*
X63819047Y-81323809D01*
X63342857Y-81419047D01*
X64200000Y-81704761D02*
X64295238Y-81752380D01*
X64485714Y-81752380D01*
X64580952Y-81704761D01*
X64628571Y-81609523D01*
X64628571Y-81561904D01*
X64580952Y-81466666D01*
X64485714Y-81419047D01*
X64342857Y-81419047D01*
X64247619Y-81371428D01*
X64200000Y-81276190D01*
X64200000Y-81228571D01*
X64247619Y-81133333D01*
X64342857Y-81085714D01*
X64485714Y-81085714D01*
X64580952Y-81133333D01*
X65438095Y-81704761D02*
X65342857Y-81752380D01*
X65152380Y-81752380D01*
X65057142Y-81704761D01*
X65009523Y-81609523D01*
X65009523Y-81228571D01*
X65057142Y-81133333D01*
X65152380Y-81085714D01*
X65342857Y-81085714D01*
X65438095Y-81133333D01*
X65485714Y-81228571D01*
X65485714Y-81323809D01*
X65009523Y-81419047D01*
X65771428Y-81085714D02*
X66152380Y-81085714D01*
X65914285Y-80752380D02*
X65914285Y-81609523D01*
X65961904Y-81704761D01*
X66057142Y-81752380D01*
X66152380Y-81752380D01*
X52338095Y-87500000D02*
X52242857Y-87452380D01*
X52100000Y-87452380D01*
X51957142Y-87500000D01*
X51861904Y-87595238D01*
X51814285Y-87690476D01*
X51766666Y-87880952D01*
X51766666Y-88023809D01*
X51814285Y-88214285D01*
X51861904Y-88309523D01*
X51957142Y-88404761D01*
X52100000Y-88452380D01*
X52195238Y-88452380D01*
X52338095Y-88404761D01*
X52385714Y-88357142D01*
X52385714Y-88023809D01*
X52195238Y-88023809D01*
X52814285Y-88452380D02*
X52814285Y-87452380D01*
X53385714Y-88452380D01*
X53385714Y-87452380D01*
X53861904Y-88452380D02*
X53861904Y-87452380D01*
X54100000Y-87452380D01*
X54242857Y-87500000D01*
X54338095Y-87595238D01*
X54385714Y-87690476D01*
X54433333Y-87880952D01*
X54433333Y-88023809D01*
X54385714Y-88214285D01*
X54338095Y-88309523D01*
X54242857Y-88404761D01*
X54100000Y-88452380D01*
X53861904Y-88452380D01*
X60652380Y-70852380D02*
X60842857Y-70852380D01*
X60938095Y-70900000D01*
X61033333Y-70995238D01*
X61080952Y-71185714D01*
X61080952Y-71519047D01*
X61033333Y-71709523D01*
X60938095Y-71804761D01*
X60842857Y-71852380D01*
X60652380Y-71852380D01*
X60557142Y-71804761D01*
X60461904Y-71709523D01*
X60414285Y-71519047D01*
X60414285Y-71185714D01*
X60461904Y-70995238D01*
X60557142Y-70900000D01*
X60652380Y-70852380D01*
X61509523Y-71185714D02*
X61509523Y-71852380D01*
X61509523Y-71280952D02*
X61557142Y-71233333D01*
X61652380Y-71185714D01*
X61795238Y-71185714D01*
X61890476Y-71233333D01*
X61938095Y-71328571D01*
X61938095Y-71852380D01*
%TO.C,C4*%
X50157142Y-86566666D02*
X50204761Y-86614285D01*
X50252380Y-86757142D01*
X50252380Y-86852380D01*
X50204761Y-86995238D01*
X50109523Y-87090476D01*
X50014285Y-87138095D01*
X49823809Y-87185714D01*
X49680952Y-87185714D01*
X49490476Y-87138095D01*
X49395238Y-87090476D01*
X49300000Y-86995238D01*
X49252380Y-86852380D01*
X49252380Y-86757142D01*
X49300000Y-86614285D01*
X49347619Y-86566666D01*
X49585714Y-85709523D02*
X50252380Y-85709523D01*
X49204761Y-85947619D02*
X49919047Y-86185714D01*
X49919047Y-85566666D01*
%TO.C,J2*%
X56966666Y-71922380D02*
X56966666Y-72636666D01*
X56919047Y-72779523D01*
X56823809Y-72874761D01*
X56680952Y-72922380D01*
X56585714Y-72922380D01*
X57395238Y-72017619D02*
X57442857Y-71970000D01*
X57538095Y-71922380D01*
X57776190Y-71922380D01*
X57871428Y-71970000D01*
X57919047Y-72017619D01*
X57966666Y-72112857D01*
X57966666Y-72208095D01*
X57919047Y-72350952D01*
X57347619Y-72922380D01*
X57966666Y-72922380D01*
%TO.C,J4*%
X79166666Y-81952380D02*
X79166666Y-82666666D01*
X79119047Y-82809523D01*
X79023809Y-82904761D01*
X78880952Y-82952380D01*
X78785714Y-82952380D01*
X80071428Y-82285714D02*
X80071428Y-82952380D01*
X79833333Y-81904761D02*
X79595238Y-82619047D01*
X80214285Y-82619047D01*
D10*
X78133333Y-90061904D02*
X78133333Y-89261904D01*
X78400000Y-89833333D01*
X78666666Y-89261904D01*
X78666666Y-90061904D01*
X79161904Y-90061904D02*
X79085714Y-90023809D01*
X79047619Y-89985714D01*
X79009523Y-89909523D01*
X79009523Y-89680952D01*
X79047619Y-89604761D01*
X79085714Y-89566666D01*
X79161904Y-89528571D01*
X79276190Y-89528571D01*
X79352380Y-89566666D01*
X79390476Y-89604761D01*
X79428571Y-89680952D01*
X79428571Y-89909523D01*
X79390476Y-89985714D01*
X79352380Y-90023809D01*
X79276190Y-90061904D01*
X79161904Y-90061904D01*
X79657142Y-89528571D02*
X79961904Y-89528571D01*
X79771428Y-89261904D02*
X79771428Y-89947619D01*
X79809523Y-90023809D01*
X79885714Y-90061904D01*
X79961904Y-90061904D01*
X80342857Y-90061904D02*
X80266666Y-90023809D01*
X80228571Y-89985714D01*
X80190476Y-89909523D01*
X80190476Y-89680952D01*
X80228571Y-89604761D01*
X80266666Y-89566666D01*
X80342857Y-89528571D01*
X80457142Y-89528571D01*
X80533333Y-89566666D01*
X80571428Y-89604761D01*
X80609523Y-89680952D01*
X80609523Y-89909523D01*
X80571428Y-89985714D01*
X80533333Y-90023809D01*
X80457142Y-90061904D01*
X80342857Y-90061904D01*
X80952380Y-90061904D02*
X80952380Y-89528571D01*
X80952380Y-89680952D02*
X80990476Y-89604761D01*
X81028571Y-89566666D01*
X81104761Y-89528571D01*
X81180952Y-89528571D01*
D11*
%TO.C,R1*%
X42252380Y-86766666D02*
X41776190Y-87100000D01*
X42252380Y-87338095D02*
X41252380Y-87338095D01*
X41252380Y-86957142D01*
X41300000Y-86861904D01*
X41347619Y-86814285D01*
X41442857Y-86766666D01*
X41585714Y-86766666D01*
X41680952Y-86814285D01*
X41728571Y-86861904D01*
X41776190Y-86957142D01*
X41776190Y-87338095D01*
X42252380Y-85814285D02*
X42252380Y-86385714D01*
X42252380Y-86100000D02*
X41252380Y-86100000D01*
X41395238Y-86195238D01*
X41490476Y-86290476D01*
X41538095Y-86385714D01*
%TO.C,M5*%
X86490476Y-72222380D02*
X86490476Y-71222380D01*
X86823809Y-71936666D01*
X87157142Y-71222380D01*
X87157142Y-72222380D01*
X88109523Y-71222380D02*
X87633333Y-71222380D01*
X87585714Y-71698571D01*
X87633333Y-71650952D01*
X87728571Y-71603333D01*
X87966666Y-71603333D01*
X88061904Y-71650952D01*
X88109523Y-71698571D01*
X88157142Y-71793809D01*
X88157142Y-72031904D01*
X88109523Y-72127142D01*
X88061904Y-72174761D01*
X87966666Y-72222380D01*
X87728571Y-72222380D01*
X87633333Y-72174761D01*
X87585714Y-72127142D01*
%TO.C,J1*%
X55966666Y-84852380D02*
X55966666Y-85566666D01*
X55919047Y-85709523D01*
X55823809Y-85804761D01*
X55680952Y-85852380D01*
X55585714Y-85852380D01*
X56966666Y-85852380D02*
X56395238Y-85852380D01*
X56680952Y-85852380D02*
X56680952Y-84852380D01*
X56585714Y-84995238D01*
X56490476Y-85090476D01*
X56395238Y-85138095D01*
%TO.C,R4*%
X41552380Y-79566666D02*
X41076190Y-79900000D01*
X41552380Y-80138095D02*
X40552380Y-80138095D01*
X40552380Y-79757142D01*
X40600000Y-79661904D01*
X40647619Y-79614285D01*
X40742857Y-79566666D01*
X40885714Y-79566666D01*
X40980952Y-79614285D01*
X41028571Y-79661904D01*
X41076190Y-79757142D01*
X41076190Y-80138095D01*
X40885714Y-78709523D02*
X41552380Y-78709523D01*
X40504761Y-78947619D02*
X41219047Y-79185714D01*
X41219047Y-78566666D01*
%TO.C,C1*%
X101057142Y-83766666D02*
X101104761Y-83814285D01*
X101152380Y-83957142D01*
X101152380Y-84052380D01*
X101104761Y-84195238D01*
X101009523Y-84290476D01*
X100914285Y-84338095D01*
X100723809Y-84385714D01*
X100580952Y-84385714D01*
X100390476Y-84338095D01*
X100295238Y-84290476D01*
X100200000Y-84195238D01*
X100152380Y-84052380D01*
X100152380Y-83957142D01*
X100200000Y-83814285D01*
X100247619Y-83766666D01*
X101152380Y-82814285D02*
X101152380Y-83385714D01*
X101152380Y-83100000D02*
X100152380Y-83100000D01*
X100295238Y-83195238D01*
X100390476Y-83290476D01*
X100438095Y-83385714D01*
%TO.C,C5*%
X39357142Y-79566666D02*
X39404761Y-79614285D01*
X39452380Y-79757142D01*
X39452380Y-79852380D01*
X39404761Y-79995238D01*
X39309523Y-80090476D01*
X39214285Y-80138095D01*
X39023809Y-80185714D01*
X38880952Y-80185714D01*
X38690476Y-80138095D01*
X38595238Y-80090476D01*
X38500000Y-79995238D01*
X38452380Y-79852380D01*
X38452380Y-79757142D01*
X38500000Y-79614285D01*
X38547619Y-79566666D01*
X38452380Y-78661904D02*
X38452380Y-79138095D01*
X38928571Y-79185714D01*
X38880952Y-79138095D01*
X38833333Y-79042857D01*
X38833333Y-78804761D01*
X38880952Y-78709523D01*
X38928571Y-78661904D01*
X39023809Y-78614285D01*
X39261904Y-78614285D01*
X39357142Y-78661904D01*
X39404761Y-78709523D01*
X39452380Y-78804761D01*
X39452380Y-79042857D01*
X39404761Y-79138095D01*
X39357142Y-79185714D01*
%TO.C,C7*%
X76037142Y-86966666D02*
X76084761Y-87014285D01*
X76132380Y-87157142D01*
X76132380Y-87252380D01*
X76084761Y-87395238D01*
X75989523Y-87490476D01*
X75894285Y-87538095D01*
X75703809Y-87585714D01*
X75560952Y-87585714D01*
X75370476Y-87538095D01*
X75275238Y-87490476D01*
X75180000Y-87395238D01*
X75132380Y-87252380D01*
X75132380Y-87157142D01*
X75180000Y-87014285D01*
X75227619Y-86966666D01*
X75132380Y-86633333D02*
X75132380Y-85966666D01*
X76132380Y-86395238D01*
%TO.C,R3*%
X37552380Y-79566666D02*
X37076190Y-79900000D01*
X37552380Y-80138095D02*
X36552380Y-80138095D01*
X36552380Y-79757142D01*
X36600000Y-79661904D01*
X36647619Y-79614285D01*
X36742857Y-79566666D01*
X36885714Y-79566666D01*
X36980952Y-79614285D01*
X37028571Y-79661904D01*
X37076190Y-79757142D01*
X37076190Y-80138095D01*
X36552380Y-79233333D02*
X36552380Y-78614285D01*
X36933333Y-78947619D01*
X36933333Y-78804761D01*
X36980952Y-78709523D01*
X37028571Y-78661904D01*
X37123809Y-78614285D01*
X37361904Y-78614285D01*
X37457142Y-78661904D01*
X37504761Y-78709523D01*
X37552380Y-78804761D01*
X37552380Y-79090476D01*
X37504761Y-79185714D01*
X37457142Y-79233333D01*
%TO.C,M6*%
X90590476Y-72197380D02*
X90590476Y-71197380D01*
X90923809Y-71911666D01*
X91257142Y-71197380D01*
X91257142Y-72197380D01*
X92161904Y-71197380D02*
X91971428Y-71197380D01*
X91876190Y-71245000D01*
X91828571Y-71292619D01*
X91733333Y-71435476D01*
X91685714Y-71625952D01*
X91685714Y-72006904D01*
X91733333Y-72102142D01*
X91780952Y-72149761D01*
X91876190Y-72197380D01*
X92066666Y-72197380D01*
X92161904Y-72149761D01*
X92209523Y-72102142D01*
X92257142Y-72006904D01*
X92257142Y-71768809D01*
X92209523Y-71673571D01*
X92161904Y-71625952D01*
X92066666Y-71578333D01*
X91876190Y-71578333D01*
X91780952Y-71625952D01*
X91733333Y-71673571D01*
X91685714Y-71768809D01*
%TO.C,M2*%
X74190476Y-72222380D02*
X74190476Y-71222380D01*
X74523809Y-71936666D01*
X74857142Y-71222380D01*
X74857142Y-72222380D01*
X75285714Y-71317619D02*
X75333333Y-71270000D01*
X75428571Y-71222380D01*
X75666666Y-71222380D01*
X75761904Y-71270000D01*
X75809523Y-71317619D01*
X75857142Y-71412857D01*
X75857142Y-71508095D01*
X75809523Y-71650952D01*
X75238095Y-72222380D01*
X75857142Y-72222380D01*
%TO.C,J3*%
X86966666Y-81922380D02*
X86966666Y-82636666D01*
X86919047Y-82779523D01*
X86823809Y-82874761D01*
X86680952Y-82922380D01*
X86585714Y-82922380D01*
X87347619Y-81922380D02*
X87966666Y-81922380D01*
X87633333Y-82303333D01*
X87776190Y-82303333D01*
X87871428Y-82350952D01*
X87919047Y-82398571D01*
X87966666Y-82493809D01*
X87966666Y-82731904D01*
X87919047Y-82827142D01*
X87871428Y-82874761D01*
X87776190Y-82922380D01*
X87490476Y-82922380D01*
X87395238Y-82874761D01*
X87347619Y-82827142D01*
D10*
X86076190Y-90161904D02*
X86076190Y-89361904D01*
X86380952Y-89361904D01*
X86457142Y-89400000D01*
X86495238Y-89438095D01*
X86533333Y-89514285D01*
X86533333Y-89628571D01*
X86495238Y-89704761D01*
X86457142Y-89742857D01*
X86380952Y-89780952D01*
X86076190Y-89780952D01*
X86800000Y-89361904D02*
X86990476Y-90161904D01*
X87142857Y-89590476D01*
X87295238Y-90161904D01*
X87485714Y-89361904D01*
X87790476Y-90161904D02*
X87790476Y-89361904D01*
X88057142Y-89933333D01*
X88323809Y-89361904D01*
X88323809Y-90161904D01*
D11*
%TO.C,M1*%
X70090476Y-72222380D02*
X70090476Y-71222380D01*
X70423809Y-71936666D01*
X70757142Y-71222380D01*
X70757142Y-72222380D01*
X71757142Y-72222380D02*
X71185714Y-72222380D01*
X71471428Y-72222380D02*
X71471428Y-71222380D01*
X71376190Y-71365238D01*
X71280952Y-71460476D01*
X71185714Y-71508095D01*
%TO.C,J5*%
X91066666Y-81922380D02*
X91066666Y-82636666D01*
X91019047Y-82779523D01*
X90923809Y-82874761D01*
X90780952Y-82922380D01*
X90685714Y-82922380D01*
X92019047Y-81922380D02*
X91542857Y-81922380D01*
X91495238Y-82398571D01*
X91542857Y-82350952D01*
X91638095Y-82303333D01*
X91876190Y-82303333D01*
X91971428Y-82350952D01*
X92019047Y-82398571D01*
X92066666Y-82493809D01*
X92066666Y-82731904D01*
X92019047Y-82827142D01*
X91971428Y-82874761D01*
X91876190Y-82922380D01*
X91638095Y-82922380D01*
X91542857Y-82874761D01*
X91495238Y-82827142D01*
D10*
X89857142Y-89923809D02*
X89971428Y-89961904D01*
X90161904Y-89961904D01*
X90238095Y-89923809D01*
X90276190Y-89885714D01*
X90314285Y-89809523D01*
X90314285Y-89733333D01*
X90276190Y-89657142D01*
X90238095Y-89619047D01*
X90161904Y-89580952D01*
X90009523Y-89542857D01*
X89933333Y-89504761D01*
X89895238Y-89466666D01*
X89857142Y-89390476D01*
X89857142Y-89314285D01*
X89895238Y-89238095D01*
X89933333Y-89200000D01*
X90009523Y-89161904D01*
X90200000Y-89161904D01*
X90314285Y-89200000D01*
X90657142Y-89428571D02*
X90657142Y-90228571D01*
X90657142Y-89466666D02*
X90733333Y-89428571D01*
X90885714Y-89428571D01*
X90961904Y-89466666D01*
X91000000Y-89504761D01*
X91038095Y-89580952D01*
X91038095Y-89809523D01*
X91000000Y-89885714D01*
X90961904Y-89923809D01*
X90885714Y-89961904D01*
X90733333Y-89961904D01*
X90657142Y-89923809D01*
X91723809Y-89961904D02*
X91723809Y-89542857D01*
X91685714Y-89466666D01*
X91609523Y-89428571D01*
X91457142Y-89428571D01*
X91380952Y-89466666D01*
X91723809Y-89923809D02*
X91647619Y-89961904D01*
X91457142Y-89961904D01*
X91380952Y-89923809D01*
X91342857Y-89847619D01*
X91342857Y-89771428D01*
X91380952Y-89695238D01*
X91457142Y-89657142D01*
X91647619Y-89657142D01*
X91723809Y-89619047D01*
X92104761Y-89961904D02*
X92104761Y-89428571D01*
X92104761Y-89580952D02*
X92142857Y-89504761D01*
X92180952Y-89466666D01*
X92257142Y-89428571D01*
X92333333Y-89428571D01*
X92904761Y-89923809D02*
X92828571Y-89961904D01*
X92676190Y-89961904D01*
X92600000Y-89923809D01*
X92561904Y-89847619D01*
X92561904Y-89542857D01*
X92600000Y-89466666D01*
X92676190Y-89428571D01*
X92828571Y-89428571D01*
X92904761Y-89466666D01*
X92942857Y-89542857D01*
X92942857Y-89619047D01*
X92561904Y-89695238D01*
D11*
%TO.C,M3*%
X78290476Y-72222380D02*
X78290476Y-71222380D01*
X78623809Y-71936666D01*
X78957142Y-71222380D01*
X78957142Y-72222380D01*
X79338095Y-71222380D02*
X79957142Y-71222380D01*
X79623809Y-71603333D01*
X79766666Y-71603333D01*
X79861904Y-71650952D01*
X79909523Y-71698571D01*
X79957142Y-71793809D01*
X79957142Y-72031904D01*
X79909523Y-72127142D01*
X79861904Y-72174761D01*
X79766666Y-72222380D01*
X79480952Y-72222380D01*
X79385714Y-72174761D01*
X79338095Y-72127142D01*
D12*
%TO.C,S1*%
X59035542Y-81633742D02*
X59122628Y-81662771D01*
X59267771Y-81662771D01*
X59325828Y-81633742D01*
X59354857Y-81604714D01*
X59383885Y-81546657D01*
X59383885Y-81488600D01*
X59354857Y-81430542D01*
X59325828Y-81401514D01*
X59267771Y-81372485D01*
X59151657Y-81343457D01*
X59093600Y-81314428D01*
X59064571Y-81285400D01*
X59035542Y-81227342D01*
X59035542Y-81169285D01*
X59064571Y-81111228D01*
X59093600Y-81082200D01*
X59151657Y-81053171D01*
X59296800Y-81053171D01*
X59383885Y-81082200D01*
X59964457Y-81662771D02*
X59616114Y-81662771D01*
X59790285Y-81662771D02*
X59790285Y-81053171D01*
X59732228Y-81140257D01*
X59674171Y-81198314D01*
X59616114Y-81227342D01*
D11*
%TO.C,R2*%
X40152380Y-86766666D02*
X39676190Y-87100000D01*
X40152380Y-87338095D02*
X39152380Y-87338095D01*
X39152380Y-86957142D01*
X39200000Y-86861904D01*
X39247619Y-86814285D01*
X39342857Y-86766666D01*
X39485714Y-86766666D01*
X39580952Y-86814285D01*
X39628571Y-86861904D01*
X39676190Y-86957142D01*
X39676190Y-87338095D01*
X39247619Y-86385714D02*
X39200000Y-86338095D01*
X39152380Y-86242857D01*
X39152380Y-86004761D01*
X39200000Y-85909523D01*
X39247619Y-85861904D01*
X39342857Y-85814285D01*
X39438095Y-85814285D01*
X39580952Y-85861904D01*
X40152380Y-86433333D01*
X40152380Y-85814285D01*
%TO.C,SW1*%
X58866666Y-80704761D02*
X59009523Y-80752380D01*
X59247619Y-80752380D01*
X59342857Y-80704761D01*
X59390476Y-80657142D01*
X59438095Y-80561904D01*
X59438095Y-80466666D01*
X59390476Y-80371428D01*
X59342857Y-80323809D01*
X59247619Y-80276190D01*
X59057142Y-80228571D01*
X58961904Y-80180952D01*
X58914285Y-80133333D01*
X58866666Y-80038095D01*
X58866666Y-79942857D01*
X58914285Y-79847619D01*
X58961904Y-79800000D01*
X59057142Y-79752380D01*
X59295238Y-79752380D01*
X59438095Y-79800000D01*
X59771428Y-79752380D02*
X60009523Y-80752380D01*
X60200000Y-80038095D01*
X60390476Y-80752380D01*
X60628571Y-79752380D01*
X61533333Y-80752380D02*
X60961904Y-80752380D01*
X61247619Y-80752380D02*
X61247619Y-79752380D01*
X61152380Y-79895238D01*
X61057142Y-79990476D01*
X60961904Y-80038095D01*
%TO.C,M4*%
X82390476Y-72222380D02*
X82390476Y-71222380D01*
X82723809Y-71936666D01*
X83057142Y-71222380D01*
X83057142Y-72222380D01*
X83961904Y-71555714D02*
X83961904Y-72222380D01*
X83723809Y-71174761D02*
X83485714Y-71889047D01*
X84104761Y-71889047D01*
D13*
%TO.C,C4*%
X49910000Y-75200000D02*
X49910000Y-76200000D01*
X51760000Y-77504437D02*
X51760000Y-85160000D01*
X43040000Y-77504437D02*
X43040000Y-85160000D01*
X51760000Y-85160000D02*
X48910000Y-85160000D01*
X44104437Y-76440000D02*
X43040000Y-77504437D01*
X50410000Y-75700000D02*
X49410000Y-75700000D01*
X43040000Y-85160000D02*
X45890000Y-85160000D01*
X44104437Y-76440000D02*
X45890000Y-76440000D01*
X50695563Y-76440000D02*
X48910000Y-76440000D01*
X50695563Y-76440000D02*
X51760000Y-77504437D01*
%TO.C,J2*%
X55970000Y-74800000D02*
X55970000Y-73470000D01*
X55970000Y-78670000D02*
X58630000Y-78670000D01*
X55970000Y-76070000D02*
X58630000Y-76070000D01*
X55970000Y-76070000D02*
X55970000Y-78670000D01*
X58630000Y-76070000D02*
X58630000Y-78670000D01*
X55970000Y-73470000D02*
X57300000Y-73470000D01*
%TO.C,J4*%
X80930000Y-86105000D02*
X78270000Y-86105000D01*
X80930000Y-83505000D02*
X78270000Y-83505000D01*
X80930000Y-88705000D02*
X79600000Y-88705000D01*
X80930000Y-87375000D02*
X80930000Y-88705000D01*
X80930000Y-86105000D02*
X80930000Y-83505000D01*
X78270000Y-86105000D02*
X78270000Y-83505000D01*
%TO.C,R1*%
X41065000Y-83572936D02*
X41065000Y-84027064D01*
X42535000Y-83572936D02*
X42535000Y-84027064D01*
%TO.C,M5*%
X85970000Y-80510000D02*
X88630000Y-80510000D01*
X88630000Y-75370000D02*
X88630000Y-80510000D01*
X85970000Y-74100000D02*
X85970000Y-72770000D01*
X85970000Y-75370000D02*
X85970000Y-80510000D01*
X85970000Y-72770000D02*
X87300000Y-72770000D01*
X85970000Y-75370000D02*
X88630000Y-75370000D01*
%TO.C,J1*%
X70490000Y-89130000D02*
X70490000Y-86470000D01*
X57730000Y-89130000D02*
X70490000Y-89130000D01*
X57730000Y-86470000D02*
X70490000Y-86470000D01*
X57730000Y-89130000D02*
X57730000Y-86470000D01*
X55130000Y-89130000D02*
X55130000Y-87800000D01*
X56460000Y-89130000D02*
X55130000Y-89130000D01*
%TO.C,R4*%
X40265000Y-76727064D02*
X40265000Y-76272936D01*
X41735000Y-76727064D02*
X41735000Y-76272936D01*
%TO.C,C1*%
X102460000Y-82560000D02*
X99610000Y-82560000D01*
X101110000Y-73100000D02*
X100110000Y-73100000D01*
X94804437Y-73840000D02*
X93740000Y-74904437D01*
X93740000Y-74904437D02*
X93740000Y-82560000D01*
X102460000Y-74904437D02*
X102460000Y-82560000D01*
X94804437Y-73840000D02*
X96590000Y-73840000D01*
X100610000Y-72600000D02*
X100610000Y-73600000D01*
X101395563Y-73840000D02*
X102460000Y-74904437D01*
X93740000Y-82560000D02*
X96590000Y-82560000D01*
X101395563Y-73840000D02*
X99610000Y-73840000D01*
%TO.C,C5*%
X39635000Y-76238748D02*
X39635000Y-76761252D01*
X38165000Y-76238748D02*
X38165000Y-76761252D01*
%TO.C,C7*%
X74735000Y-86538748D02*
X74735000Y-87061252D01*
X73265000Y-86538748D02*
X73265000Y-87061252D01*
%TO.C,R3*%
X37635000Y-76727064D02*
X37635000Y-76272936D01*
X36165000Y-76727064D02*
X36165000Y-76272936D01*
%TO.C,M6*%
X92730000Y-75345000D02*
X92730000Y-80485000D01*
X90070000Y-80485000D02*
X92730000Y-80485000D01*
X90070000Y-75345000D02*
X92730000Y-75345000D01*
X90070000Y-74075000D02*
X90070000Y-72745000D01*
X90070000Y-72745000D02*
X91400000Y-72745000D01*
X90070000Y-75345000D02*
X90070000Y-80485000D01*
%TO.C,M2*%
X73670000Y-75370000D02*
X73670000Y-80510000D01*
X73670000Y-80510000D02*
X76330000Y-80510000D01*
X73670000Y-72770000D02*
X75000000Y-72770000D01*
X76330000Y-75370000D02*
X76330000Y-80510000D01*
X73670000Y-74100000D02*
X73670000Y-72770000D01*
X73670000Y-75370000D02*
X76330000Y-75370000D01*
%TO.C,J3*%
X85970000Y-88670000D02*
X88630000Y-88670000D01*
X85970000Y-83470000D02*
X87300000Y-83470000D01*
X85970000Y-84800000D02*
X85970000Y-83470000D01*
X85970000Y-86070000D02*
X88630000Y-86070000D01*
X88630000Y-86070000D02*
X88630000Y-88670000D01*
X85970000Y-86070000D02*
X85970000Y-88670000D01*
%TO.C,M1*%
X69570000Y-72770000D02*
X70900000Y-72770000D01*
X69570000Y-80510000D02*
X72230000Y-80510000D01*
X69570000Y-74100000D02*
X69570000Y-72770000D01*
X69570000Y-75370000D02*
X72230000Y-75370000D01*
X72230000Y-75370000D02*
X72230000Y-80510000D01*
X69570000Y-75370000D02*
X69570000Y-80510000D01*
%TO.C,J5*%
X90070000Y-88670000D02*
X92730000Y-88670000D01*
X92730000Y-86070000D02*
X92730000Y-88670000D01*
X90070000Y-83470000D02*
X91400000Y-83470000D01*
X90070000Y-86070000D02*
X92730000Y-86070000D01*
X90070000Y-84800000D02*
X90070000Y-83470000D01*
X90070000Y-86070000D02*
X90070000Y-88670000D01*
%TO.C,M3*%
X77770000Y-74100000D02*
X77770000Y-72770000D01*
X77770000Y-75370000D02*
X80430000Y-75370000D01*
X77770000Y-72770000D02*
X79100000Y-72770000D01*
X77770000Y-80510000D02*
X80430000Y-80510000D01*
X80430000Y-75370000D02*
X80430000Y-80510000D01*
X77770000Y-75370000D02*
X77770000Y-80510000D01*
D14*
%TO.C,S1*%
X59000260Y-82700180D02*
X59000260Y-82301400D01*
X60501400Y-83050700D02*
X63498600Y-83050700D01*
X64748280Y-85547520D02*
X59251720Y-85547520D01*
X64999740Y-85298600D02*
X64999740Y-84899820D01*
X59000260Y-85298600D02*
X59000260Y-84899820D01*
X60501400Y-84549300D02*
X60501400Y-83050700D01*
X64999740Y-82700180D02*
X64999740Y-82301400D01*
X63498600Y-84549300D02*
X63498600Y-83050700D01*
X63498600Y-84549300D02*
X60501400Y-84549300D01*
X59251720Y-82052480D02*
X64748280Y-82052480D01*
X59002800Y-85298600D02*
G75*
G03*
X59251720Y-85547520I248920J0D01*
G01*
X64997220Y-82301400D02*
G75*
G03*
X64748280Y-82052480I-248920J0D01*
G01*
X64748280Y-85550040D02*
G75*
G03*
X64999740Y-85298600I20J251440D01*
G01*
X59251720Y-82049940D02*
G75*
G03*
X59000260Y-82301400I0J-251460D01*
G01*
D13*
%TO.C,R2*%
X38965000Y-83572936D02*
X38965000Y-84027064D01*
X40435000Y-83572936D02*
X40435000Y-84027064D01*
%TO.C,SW1*%
X60400000Y-72900000D02*
X61500000Y-72900000D01*
X67800000Y-72900000D02*
X67800000Y-79000000D01*
X65500000Y-79000000D02*
X64750000Y-79000000D01*
X67800000Y-72900000D02*
X66700000Y-72900000D01*
X60400000Y-79000000D02*
X60400000Y-72900000D01*
X64700000Y-72900000D02*
X65500000Y-72900000D01*
X62700000Y-72900000D02*
X63500000Y-72900000D01*
X63500000Y-79000000D02*
X62700000Y-79000000D01*
X67800000Y-79000000D02*
X66700000Y-79000000D01*
X60400000Y-79000000D02*
X61500000Y-79000000D01*
%TO.C,M4*%
X81870000Y-75370000D02*
X81870000Y-80510000D01*
X81870000Y-72770000D02*
X83200000Y-72770000D01*
X84530000Y-75370000D02*
X84530000Y-80510000D01*
X81870000Y-80510000D02*
X84530000Y-80510000D01*
X81870000Y-74100000D02*
X81870000Y-72770000D01*
X81870000Y-75370000D02*
X84530000Y-75370000D01*
%TD*%
M02*
