%TF.GenerationSoftware,KiCad,Pcbnew,(6.0.7)*%
%TF.CreationDate,2022-10-27T13:02:41+02:00*%
%TF.ProjectId,UniMini,556e694d-696e-4692-9e6b-696361645f70,rev?*%
%TF.SameCoordinates,Original*%
%TF.FileFunction,Copper,L2,Bot*%
%TF.FilePolarity,Positive*%
%FSLAX46Y46*%
G04 Gerber Fmt 4.6, Leading zero omitted, Abs format (unit mm)*
G04 Created by KiCad (PCBNEW (6.0.7)) date 2022-10-27 13:02:41*
%MOMM*%
%LPD*%
G01*
G04 APERTURE LIST*
G04 Aperture macros list*
%AMRoundRect*
0 Rectangle with rounded corners*
0 $1 Rounding radius*
0 $2 $3 $4 $5 $6 $7 $8 $9 X,Y pos of 4 corners*
0 Add a 4 corners polygon primitive as box body*
4,1,4,$2,$3,$4,$5,$6,$7,$8,$9,$2,$3,0*
0 Add four circle primitives for the rounded corners*
1,1,$1+$1,$2,$3*
1,1,$1+$1,$4,$5*
1,1,$1+$1,$6,$7*
1,1,$1+$1,$8,$9*
0 Add four rect primitives between the rounded corners*
20,1,$1+$1,$2,$3,$4,$5,0*
20,1,$1+$1,$4,$5,$6,$7,0*
20,1,$1+$1,$6,$7,$8,$9,0*
20,1,$1+$1,$8,$9,$2,$3,0*%
%AMFreePoly0*
4,1,9,3.862500,-0.866500,0.737500,-0.866500,0.737500,-0.450000,-0.737500,-0.450000,-0.737500,0.450000,0.737500,0.450000,0.737500,0.866500,3.862500,0.866500,3.862500,-0.866500,3.862500,-0.866500,$1*%
G04 Aperture macros list end*
%TA.AperFunction,ComponentPad*%
%ADD10R,1.700000X1.700000*%
%TD*%
%TA.AperFunction,ComponentPad*%
%ADD11O,1.700000X1.700000*%
%TD*%
%TA.AperFunction,SMDPad,CuDef*%
%ADD12RoundRect,0.250000X0.350000X0.450000X-0.350000X0.450000X-0.350000X-0.450000X0.350000X-0.450000X0*%
%TD*%
%TA.AperFunction,SMDPad,CuDef*%
%ADD13R,1.300000X0.900000*%
%TD*%
%TA.AperFunction,SMDPad,CuDef*%
%ADD14FreePoly0,180.000000*%
%TD*%
%TA.AperFunction,SMDPad,CuDef*%
%ADD15RoundRect,0.250000X-0.450000X0.350000X-0.450000X-0.350000X0.450000X-0.350000X0.450000X0.350000X0*%
%TD*%
%TA.AperFunction,SMDPad,CuDef*%
%ADD16RoundRect,0.250000X-0.337500X-0.475000X0.337500X-0.475000X0.337500X0.475000X-0.337500X0.475000X0*%
%TD*%
%TA.AperFunction,SMDPad,CuDef*%
%ADD17RoundRect,0.070692X0.719308X0.223858X-0.719308X0.223858X-0.719308X-0.223858X0.719308X-0.223858X0*%
%TD*%
%TA.AperFunction,SMDPad,CuDef*%
%ADD18RoundRect,0.250000X-0.350000X-0.450000X0.350000X-0.450000X0.350000X0.450000X-0.350000X0.450000X0*%
%TD*%
%TA.AperFunction,SMDPad,CuDef*%
%ADD19RoundRect,0.250000X0.475000X-0.337500X0.475000X0.337500X-0.475000X0.337500X-0.475000X-0.337500X0*%
%TD*%
%TA.AperFunction,SMDPad,CuDef*%
%ADD20RoundRect,0.150000X-0.587500X-0.150000X0.587500X-0.150000X0.587500X0.150000X-0.587500X0.150000X0*%
%TD*%
%TA.AperFunction,SMDPad,CuDef*%
%ADD21R,1.200000X2.000000*%
%TD*%
%TA.AperFunction,SMDPad,CuDef*%
%ADD22R,1.700000X1.100000*%
%TD*%
%TA.AperFunction,SMDPad,CuDef*%
%ADD23RoundRect,0.150000X0.587500X0.150000X-0.587500X0.150000X-0.587500X-0.150000X0.587500X-0.150000X0*%
%TD*%
%TA.AperFunction,SMDPad,CuDef*%
%ADD24RoundRect,0.250000X0.450000X-0.350000X0.450000X0.350000X-0.450000X0.350000X-0.450000X-0.350000X0*%
%TD*%
%TA.AperFunction,ViaPad*%
%ADD25C,0.800000*%
%TD*%
%TA.AperFunction,Conductor*%
%ADD26C,2.000000*%
%TD*%
%TA.AperFunction,Conductor*%
%ADD27C,0.250000*%
%TD*%
%TA.AperFunction,Conductor*%
%ADD28C,1.000000*%
%TD*%
G04 APERTURE END LIST*
D10*
%TO.P,J2,1,Pin_1*%
%TO.N,GND*%
X57300000Y-74800000D03*
D11*
%TO.P,J2,2,Pin_2*%
%TO.N,Net-(J2-Pad2)*%
X57300000Y-77340000D03*
%TD*%
D10*
%TO.P,J4,1,Pin_1*%
%TO.N,Net-(J4-Pad1)*%
X79600000Y-87375000D03*
D11*
%TO.P,J4,2,Pin_2*%
%TO.N,Net-(J4-Pad2)*%
X79600000Y-84835000D03*
%TD*%
D10*
%TO.P,M5,1,PWM*%
%TO.N,/Servo_5*%
X87300000Y-74100000D03*
D11*
%TO.P,M5,2,+*%
%TO.N,+3V8*%
X87300000Y-76640000D03*
%TO.P,M5,3,-*%
%TO.N,GND*%
X87300000Y-79180000D03*
%TD*%
D10*
%TO.P,J1,1,Pin_1*%
%TO.N,GND*%
X56460000Y-87800000D03*
D11*
%TO.P,J1,2,Pin_2*%
%TO.N,unconnected-(J1-Pad2)*%
X59000000Y-87800000D03*
%TO.P,J1,3,Pin_3*%
%TO.N,+3V3*%
X61540000Y-87800000D03*
%TO.P,J1,4,Pin_4*%
%TO.N,/TX_P*%
X64080000Y-87800000D03*
%TO.P,J1,5,Pin_5*%
%TO.N,/RX_P*%
X66620000Y-87800000D03*
%TO.P,J1,6,Pin_6*%
%TO.N,unconnected-(J1-Pad6)*%
X69160000Y-87800000D03*
%TD*%
D10*
%TO.P,M6,1,PWM*%
%TO.N,/Servo_6*%
X91400000Y-74075000D03*
D11*
%TO.P,M6,2,+*%
%TO.N,+3V8*%
X91400000Y-76615000D03*
%TO.P,M6,3,-*%
%TO.N,GND*%
X91400000Y-79155000D03*
%TD*%
D10*
%TO.P,M2,1,PWM*%
%TO.N,/Servo_2*%
X75000000Y-74100000D03*
D11*
%TO.P,M2,2,+*%
%TO.N,+3V8*%
X75000000Y-76640000D03*
%TO.P,M2,3,-*%
%TO.N,GND*%
X75000000Y-79180000D03*
%TD*%
D10*
%TO.P,J3,1,Pin_1*%
%TO.N,+3V8*%
X87300000Y-84800000D03*
D11*
%TO.P,J3,2,Pin_2*%
%TO.N,Net-(J3-Pad2)*%
X87300000Y-87340000D03*
%TD*%
D10*
%TO.P,M1,1,PWM*%
%TO.N,/Servo_1*%
X70900000Y-74100000D03*
D11*
%TO.P,M1,2,+*%
%TO.N,+3V8*%
X70900000Y-76640000D03*
%TO.P,M1,3,-*%
%TO.N,GND*%
X70900000Y-79180000D03*
%TD*%
D10*
%TO.P,J5,1,Pin_1*%
%TO.N,+3V8*%
X91400000Y-84800000D03*
D11*
%TO.P,J5,2,Pin_2*%
%TO.N,Net-(J5-Pad2)*%
X91400000Y-87340000D03*
%TD*%
D10*
%TO.P,M3,1,PWM*%
%TO.N,/Servo_3*%
X79100000Y-74100000D03*
D11*
%TO.P,M3,2,+*%
%TO.N,+3V8*%
X79100000Y-76640000D03*
%TO.P,M3,3,-*%
%TO.N,GND*%
X79100000Y-79180000D03*
%TD*%
D10*
%TO.P,M4,1,PWM*%
%TO.N,/Servo_4*%
X83200000Y-74100000D03*
D11*
%TO.P,M4,2,+*%
%TO.N,+3V8*%
X83200000Y-76640000D03*
%TO.P,M4,3,-*%
%TO.N,GND*%
X83200000Y-79180000D03*
%TD*%
D12*
%TO.P,R6,1*%
%TO.N,Net-(Q1-Pad1)*%
X84400000Y-84700000D03*
%TO.P,R6,2*%
%TO.N,/Servo_6*%
X82400000Y-84700000D03*
%TD*%
D13*
%TO.P,U2,1,GND*%
%TO.N,GND*%
X58850000Y-81800000D03*
D14*
%TO.P,U2,2,VIN*%
%TO.N,+3V8*%
X58762500Y-83300000D03*
D13*
%TO.P,U2,3,VOUT*%
%TO.N,+3V3*%
X58850000Y-84800000D03*
%TD*%
D15*
%TO.P,R9,1*%
%TO.N,GND*%
X54700000Y-73900000D03*
%TO.P,R9,2*%
%TO.N,/CHK_BAT*%
X54700000Y-75900000D03*
%TD*%
D16*
%TO.P,C2,1*%
%TO.N,+3V8*%
X56762500Y-79700000D03*
%TO.P,C2,2*%
%TO.N,GND*%
X58837500Y-79700000D03*
%TD*%
D17*
%TO.P,U3,1,OA*%
%TO.N,Net-(J4-Pad2)*%
X76624600Y-84385000D03*
%TO.P,U3,2,VCC*%
%TO.N,+3V8*%
X76624600Y-85655000D03*
%TO.P,U3,3,VCC1*%
X76624600Y-86925000D03*
%TO.P,U3,4,OB*%
%TO.N,Net-(J4-Pad1)*%
X76624600Y-88195000D03*
%TO.P,U3,5,GND1*%
%TO.N,GND*%
X71375400Y-88195000D03*
%TO.P,U3,6,IA*%
%TO.N,/MOT_A*%
X71375400Y-86925000D03*
%TO.P,U3,7,IB*%
%TO.N,/MOT_B*%
X71375400Y-85655000D03*
%TO.P,U3,8,GND*%
%TO.N,GND*%
X71375400Y-84385000D03*
%TD*%
D18*
%TO.P,R7,1*%
%TO.N,GND*%
X82400000Y-82700000D03*
%TO.P,R7,2*%
%TO.N,Net-(Q1-Pad1)*%
X84400000Y-82700000D03*
%TD*%
D12*
%TO.P,R10,1*%
%TO.N,Net-(Q2-Pad1)*%
X96100000Y-84600000D03*
%TO.P,R10,2*%
%TO.N,/Spare*%
X94100000Y-84600000D03*
%TD*%
D15*
%TO.P,R5,1*%
%TO.N,GND*%
X69100000Y-83000000D03*
%TO.P,R5,2*%
%TO.N,/MOT_B*%
X69100000Y-85000000D03*
%TD*%
D19*
%TO.P,C3,1*%
%TO.N,+3V3*%
X60900000Y-84437500D03*
%TO.P,C3,2*%
%TO.N,GND*%
X60900000Y-82362500D03*
%TD*%
D20*
%TO.P,Q1,1,G*%
%TO.N,Net-(Q1-Pad1)*%
X82862500Y-88450000D03*
%TO.P,Q1,2,S*%
%TO.N,GND*%
X82862500Y-86550000D03*
%TO.P,Q1,3,D*%
%TO.N,Net-(J3-Pad2)*%
X84737500Y-87500000D03*
%TD*%
D16*
%TO.P,C6,1*%
%TO.N,+3V3*%
X54462500Y-71900000D03*
%TO.P,C6,2*%
%TO.N,GND*%
X56537500Y-71900000D03*
%TD*%
D15*
%TO.P,R8,1*%
%TO.N,/CHK_BAT*%
X54700000Y-77800000D03*
%TO.P,R8,2*%
%TO.N,+3V8*%
X54700000Y-79800000D03*
%TD*%
D21*
%TO.P,U1,1,RESET*%
%TO.N,Net-(R3-Pad2)*%
X36800000Y-73200000D03*
%TO.P,U1,2,ADC*%
%TO.N,/CHK_BAT*%
X38800000Y-73200000D03*
%TO.P,U1,3,EN*%
%TO.N,Net-(R4-Pad2)*%
X40800000Y-73200000D03*
%TO.P,U1,4,IO16*%
%TO.N,/Spare*%
X42800000Y-73200000D03*
%TO.P,U1,5,IO14*%
%TO.N,/MOT_A*%
X44800000Y-73200000D03*
%TO.P,U1,6,IO12*%
%TO.N,/Servo_5*%
X46800000Y-73200000D03*
%TO.P,U1,7,IO13*%
%TO.N,/Servo_6*%
X48800000Y-73200000D03*
%TO.P,U1,8,VCC*%
%TO.N,+3V3*%
X50800000Y-73200000D03*
D22*
%TO.P,U1,9,CS0*%
%TO.N,unconnected-(U1-Pad9)*%
X52300000Y-75700000D03*
%TO.P,U1,10,MISO*%
%TO.N,unconnected-(U1-Pad10)*%
X52300000Y-77700000D03*
%TO.P,U1,11,IO9*%
%TO.N,unconnected-(U1-Pad11)*%
X52300000Y-79700000D03*
%TO.P,U1,12,IO10*%
%TO.N,unconnected-(U1-Pad12)*%
X52300000Y-81700000D03*
%TO.P,U1,13,MOSI*%
%TO.N,unconnected-(U1-Pad13)*%
X52300000Y-83700000D03*
%TO.P,U1,14,SCLK*%
%TO.N,unconnected-(U1-Pad14)*%
X52300000Y-85700000D03*
D21*
%TO.P,U1,15,GND*%
%TO.N,GND*%
X50800000Y-88200000D03*
%TO.P,U1,16,IO15*%
%TO.N,/MOT_B*%
X48800000Y-88200000D03*
%TO.P,U1,17,IO2*%
%TO.N,/Servo_2*%
X46800000Y-88200000D03*
%TO.P,U1,18,IO0*%
%TO.N,/Servo_1*%
X44800000Y-88200000D03*
%TO.P,U1,19,IO4*%
%TO.N,/Servo_3*%
X42800000Y-88200000D03*
%TO.P,U1,20,IO5*%
%TO.N,/Servo_4*%
X40800000Y-88200000D03*
%TO.P,U1,21,RXD*%
%TO.N,/TX_P*%
X38800000Y-88200000D03*
%TO.P,U1,22,TXD*%
%TO.N,/RX_P*%
X36800000Y-88200000D03*
%TD*%
D23*
%TO.P,Q2,1,G*%
%TO.N,Net-(Q2-Pad1)*%
X96137500Y-86350000D03*
%TO.P,Q2,2,S*%
%TO.N,GND*%
X96137500Y-88250000D03*
%TO.P,Q2,3,D*%
%TO.N,Net-(J5-Pad2)*%
X94262500Y-87300000D03*
%TD*%
D24*
%TO.P,R11,1*%
%TO.N,GND*%
X98200000Y-88100000D03*
%TO.P,R11,2*%
%TO.N,Net-(Q2-Pad1)*%
X98200000Y-86100000D03*
%TD*%
D25*
%TO.N,+3V8*%
X93100000Y-77300000D03*
X93750000Y-77950000D03*
X67387300Y-83374700D03*
%TO.N,+3V3*%
X52045000Y-73896800D03*
%TO.N,/CHK_BAT*%
X38509800Y-71584500D03*
%TO.N,/Servo_1*%
X44538900Y-86581700D03*
X71792400Y-89699300D03*
%TO.N,/Servo_2*%
X43636700Y-85303600D03*
X63445300Y-81654500D03*
X49465900Y-83502600D03*
%TO.N,/Servo_3*%
X45525100Y-79786700D03*
%TO.N,/Servo_4*%
X44259000Y-75741700D03*
%TO.N,Net-(R3-Pad2)*%
X36900000Y-71590400D03*
X43163500Y-80603000D03*
%TO.N,Net-(R4-Pad2)*%
X42118500Y-75500000D03*
%TO.N,/MOT_B*%
X63180700Y-85233700D03*
X50514500Y-85233700D03*
%TO.N,/Spare*%
X60530400Y-81078300D03*
X43325700Y-78066400D03*
%TD*%
D26*
%TO.N,+3V8*%
X79100000Y-76640000D02*
X83200000Y-76640000D01*
D27*
X76424600Y-85693100D02*
X76586500Y-85693100D01*
X76424600Y-85655000D02*
X76424600Y-85693100D01*
D26*
X70900000Y-76640000D02*
X75000000Y-76640000D01*
D27*
X76424600Y-85731200D02*
X76424600Y-86875400D01*
X76424600Y-85731200D02*
X73403500Y-82710100D01*
X67387300Y-83374700D02*
X58837200Y-83374700D01*
X76424600Y-85693100D02*
X76424600Y-85731200D01*
D26*
X87300000Y-76640000D02*
X91375000Y-76640000D01*
D27*
X56662500Y-79800000D02*
X56762500Y-79700000D01*
D26*
X91900000Y-84300000D02*
X91400000Y-84800000D01*
X75000000Y-76640000D02*
X79100000Y-76640000D01*
X92440000Y-76640000D02*
X93100000Y-77300000D01*
X91375000Y-76640000D02*
X92440000Y-76640000D01*
D27*
X54700000Y-79800000D02*
X56662500Y-79800000D01*
D26*
X93750000Y-77950000D02*
X94000000Y-78200000D01*
D27*
X76586500Y-85693100D02*
X76624600Y-85655000D01*
D26*
X93100000Y-77300000D02*
X93750000Y-77950000D01*
X94000000Y-78200000D02*
X94000000Y-80700000D01*
X91400000Y-84800000D02*
X87300000Y-84800000D01*
X91900000Y-81949400D02*
X91900000Y-84300000D01*
D27*
X56662500Y-79800000D02*
X56662500Y-81200000D01*
X73403500Y-78196500D02*
X75000000Y-76600000D01*
X56662500Y-81200000D02*
X58762500Y-83300000D01*
D26*
X94000000Y-80700000D02*
X93149400Y-80700000D01*
X83200000Y-76640000D02*
X87300000Y-76640000D01*
D27*
X76624600Y-86925000D02*
X76474200Y-86925000D01*
X73403500Y-82710100D02*
X73403500Y-78196500D01*
D26*
X93149400Y-80700000D02*
X91900000Y-81949400D01*
D27*
X58837200Y-83374700D02*
X58762500Y-83300000D01*
%TO.N,GND*%
X56237500Y-72962500D02*
X55300000Y-73900000D01*
X54359400Y-86874700D02*
X55284700Y-87800000D01*
X71700000Y-88200000D02*
X71500000Y-88200000D01*
X54700000Y-73900000D02*
X54737500Y-73900000D01*
X70900000Y-79180000D02*
X70720000Y-79180000D01*
X71375400Y-84375400D02*
X71400000Y-84400000D01*
X71500000Y-88200000D02*
X71380400Y-88200000D01*
X57300000Y-74800000D02*
X56124700Y-74800000D01*
X68704800Y-82379800D02*
X69325000Y-83000000D01*
X68704800Y-81195200D02*
X68704800Y-82379800D01*
X56124700Y-74800000D02*
X55224700Y-73900000D01*
X70720000Y-79180000D02*
X68704800Y-81195200D01*
X60917300Y-82379800D02*
X68704800Y-82379800D01*
X71375400Y-84385000D02*
X71608200Y-84385000D01*
X83200000Y-79180000D02*
X83200000Y-80355300D01*
X82600000Y-80955300D02*
X83200000Y-80355300D01*
X83325000Y-86087500D02*
X83325000Y-83425000D01*
X56460000Y-87800000D02*
X55284700Y-87800000D01*
X69100000Y-83000000D02*
X69325000Y-83000000D01*
X81300600Y-89019700D02*
X81300600Y-83799400D01*
X96137500Y-88250000D02*
X98050000Y-88250000D01*
X69325000Y-83000000D02*
X70000000Y-83000000D01*
X55224700Y-73900000D02*
X54737500Y-73900000D01*
X60900000Y-82362500D02*
X60917300Y-82379800D01*
X82862500Y-86550000D02*
X83325000Y-86087500D01*
X59825300Y-81800000D02*
X60387800Y-82362500D01*
X70000000Y-83000000D02*
X71375400Y-84375400D01*
X58850000Y-81800000D02*
X59825300Y-81800000D01*
X81300600Y-83799400D02*
X82400000Y-82700000D01*
X58850000Y-79712500D02*
X58850000Y-81800000D01*
X71380400Y-88200000D02*
X71375400Y-88195000D01*
X50800000Y-86874700D02*
X54359400Y-86874700D01*
X58837500Y-79700000D02*
X58850000Y-79712500D01*
X81869500Y-89588600D02*
X81300600Y-89019700D01*
X72490400Y-87409600D02*
X71700000Y-88200000D01*
X82400000Y-82700000D02*
X82600000Y-82700000D01*
X60387800Y-82362500D02*
X60900000Y-82362500D01*
X82600000Y-82700000D02*
X82600000Y-80955300D01*
X56237500Y-71900000D02*
X56237500Y-72962500D01*
X96137500Y-88250000D02*
X94798900Y-89588600D01*
X83325000Y-83425000D02*
X82600000Y-82700000D01*
X72490400Y-85267200D02*
X72490400Y-87409600D01*
X50800000Y-88200000D02*
X50800000Y-86874700D01*
X71608200Y-84385000D02*
X72490400Y-85267200D01*
X98050000Y-88250000D02*
X98200000Y-88100000D01*
X94798900Y-89588600D02*
X81869500Y-89588600D01*
X71375400Y-84375400D02*
X71375400Y-84385000D01*
%TO.N,+3V3*%
X52045000Y-72517500D02*
X52662500Y-71900000D01*
X61540000Y-86624700D02*
X60900000Y-85984700D01*
X60900000Y-84800000D02*
X60900000Y-84437500D01*
X52662500Y-71900000D02*
X54100000Y-71900000D01*
X51496800Y-73896800D02*
X50800000Y-73200000D01*
X60900000Y-84800000D02*
X59825300Y-84800000D01*
X52045000Y-73896800D02*
X51496800Y-73896800D01*
X60900000Y-85984700D02*
X60900000Y-84800000D01*
X52045000Y-73896800D02*
X52045000Y-72517500D01*
X58850000Y-84800000D02*
X59825300Y-84800000D01*
X61540000Y-87800000D02*
X61540000Y-86624700D01*
%TO.N,/CHK_BAT*%
X47725000Y-74187600D02*
X47725000Y-71875000D01*
X54700000Y-75900000D02*
X54000000Y-76600000D01*
X54000000Y-76600000D02*
X50137400Y-76600000D01*
X50137400Y-76600000D02*
X47725000Y-74187600D01*
X38800000Y-73200000D02*
X38800000Y-71874700D01*
X38509800Y-71584500D02*
X38800000Y-71874700D01*
X47725000Y-71875000D02*
X47724700Y-71874700D01*
X47724700Y-71874700D02*
X38800000Y-71874700D01*
X54700000Y-77800000D02*
X54700000Y-75900000D01*
%TO.N,/TX_P*%
X62354700Y-89525300D02*
X64080000Y-87800000D01*
X38800000Y-88200000D02*
X38800000Y-89525300D01*
X38800000Y-89525300D02*
X62354700Y-89525300D01*
%TO.N,/RX_P*%
X36800000Y-89525300D02*
X37267300Y-89992600D01*
X36800000Y-88200000D02*
X36800000Y-89525300D01*
X37267300Y-89992600D02*
X64427400Y-89992600D01*
X64427400Y-89992600D02*
X66620000Y-87800000D01*
%TO.N,Net-(J3-Pad2)*%
X84737500Y-87500000D02*
X87200000Y-87500000D01*
X87200000Y-87500000D02*
X87300000Y-87400000D01*
X87300000Y-87400000D02*
X87300000Y-87340000D01*
D28*
%TO.N,Net-(J4-Pad1)*%
X76624600Y-88195000D02*
X78805000Y-88195000D01*
D27*
X79600000Y-87400000D02*
X79600000Y-87375000D01*
D28*
X78805000Y-88195000D02*
X79600000Y-87400000D01*
%TO.N,Net-(J4-Pad2)*%
X79285000Y-84385000D02*
X79600000Y-84700000D01*
X76624600Y-84385000D02*
X79285000Y-84385000D01*
X79600000Y-84700000D02*
X79700000Y-84800000D01*
D27*
X79600000Y-84700000D02*
X79600000Y-84835000D01*
%TO.N,Net-(J5-Pad2)*%
X94262500Y-87300000D02*
X91500000Y-87300000D01*
%TO.N,/Servo_1*%
X70366000Y-77985100D02*
X71370900Y-77985100D01*
X70900000Y-74100000D02*
X70900000Y-74300000D01*
X44800000Y-86874700D02*
X44538900Y-86613600D01*
X44800000Y-88200000D02*
X44800000Y-86874700D01*
X71370900Y-77985100D02*
X72953500Y-79567700D01*
X69573500Y-77192600D02*
X70366000Y-77985100D01*
X72953500Y-88538200D02*
X71792400Y-89699300D01*
X72953500Y-79567700D02*
X72953500Y-88538200D01*
X44538900Y-86613600D02*
X44538900Y-86581700D01*
X69573500Y-75626500D02*
X69573500Y-77192600D01*
X70900000Y-74300000D02*
X69573500Y-75626500D01*
%TO.N,/Servo_2*%
X47255300Y-85713200D02*
X46800000Y-85713200D01*
X63445300Y-81654500D02*
X63445300Y-77554700D01*
X72649400Y-72924700D02*
X73824700Y-74100000D01*
X46800000Y-87442700D02*
X46800000Y-85713200D01*
X46800000Y-85713200D02*
X44046300Y-85713200D01*
X44046300Y-85713200D02*
X43636700Y-85303600D01*
X46800000Y-88200000D02*
X46800000Y-87442700D01*
X49465900Y-83502600D02*
X47255300Y-85713200D01*
X68075300Y-72924700D02*
X72649400Y-72924700D01*
X73824700Y-74100000D02*
X75000000Y-74100000D01*
X63445300Y-77554700D02*
X68075300Y-72924700D01*
%TO.N,/Servo_3*%
X42800000Y-83398100D02*
X45525100Y-80673000D01*
X42800000Y-88200000D02*
X42800000Y-86874700D01*
X42800000Y-86874700D02*
X42800000Y-83398100D01*
X45525100Y-80673000D02*
X45525100Y-79786700D01*
%TO.N,/Servo_4*%
X40800000Y-84132200D02*
X40800000Y-88200000D01*
X44259000Y-75741700D02*
X44259000Y-80673200D01*
X44259000Y-80673200D02*
X40800000Y-84132200D01*
%TO.N,/Servo_5*%
X84024700Y-72000000D02*
X64200000Y-72000000D01*
X86124700Y-74100000D02*
X84024700Y-72000000D01*
X51001000Y-78726300D02*
X46800000Y-74525300D01*
X64200000Y-72000000D02*
X58475000Y-77725000D01*
X58475000Y-77725000D02*
X58475000Y-77826701D01*
X58475000Y-77826701D02*
X57763501Y-78538200D01*
X56036800Y-78538200D02*
X55848700Y-78726300D01*
X55848700Y-78726300D02*
X51001000Y-78726300D01*
X87300000Y-74100000D02*
X86124700Y-74100000D01*
X46800000Y-74525300D02*
X46800000Y-73200000D01*
X57763501Y-78538200D02*
X56036800Y-78538200D01*
%TO.N,/Servo_6*%
X49622100Y-74622100D02*
X48800000Y-73800000D01*
X82053900Y-89085100D02*
X87240000Y-89085100D01*
X90189900Y-86135200D02*
X94364800Y-86135200D01*
X87699400Y-71549700D02*
X62710400Y-71549700D01*
X81792500Y-85307500D02*
X81792500Y-88823700D01*
X95784300Y-81689800D02*
X95784300Y-77284000D01*
X91400000Y-74075000D02*
X90224700Y-74075000D01*
X90224700Y-74075000D02*
X87699400Y-71549700D01*
X55455200Y-74973600D02*
X53542700Y-74973600D01*
X95154500Y-82319600D02*
X95784300Y-81689800D01*
X95784300Y-77284000D02*
X92575300Y-74075000D01*
X53542700Y-74973600D02*
X53191200Y-74622100D01*
X95154500Y-85345500D02*
X95154500Y-82319600D01*
X92575300Y-74075000D02*
X91400000Y-74075000D01*
X55853200Y-75371600D02*
X55455200Y-74973600D01*
X53191200Y-74622100D02*
X49622100Y-74622100D01*
X87240000Y-89085100D02*
X90189900Y-86135200D01*
X62710400Y-71549700D02*
X58284700Y-75975400D01*
X81792500Y-88823700D02*
X82053900Y-89085100D01*
X48800000Y-73800000D02*
X48800000Y-73200000D01*
X82400000Y-84700000D02*
X81792500Y-85307500D01*
X55853200Y-75577700D02*
X55853200Y-75371600D01*
X58284700Y-75975400D02*
X56250900Y-75975400D01*
X56250900Y-75975400D02*
X55853200Y-75577700D01*
X94364800Y-86135200D02*
X95154500Y-85345500D01*
%TO.N,Net-(Q1-Pad1)*%
X84400000Y-86421800D02*
X84400000Y-84700000D01*
X84400000Y-82700000D02*
X84400000Y-84700000D01*
X82862500Y-88450000D02*
X82862500Y-87959300D01*
X82862500Y-87959300D02*
X84400000Y-86421800D01*
%TO.N,Net-(Q2-Pad1)*%
X96350000Y-86350000D02*
X96200000Y-86200000D01*
X96350000Y-86350000D02*
X97950000Y-86350000D01*
X96100000Y-86100000D02*
X96200000Y-86200000D01*
X96100000Y-84600000D02*
X96100000Y-86100000D01*
X97950000Y-86350000D02*
X98200000Y-86100000D01*
X96137500Y-86350000D02*
X96350000Y-86350000D01*
%TO.N,Net-(R3-Pad2)*%
X36800000Y-72537300D02*
X36800000Y-71874700D01*
X36900000Y-73300000D02*
X36900000Y-74339500D01*
X36800000Y-73200000D02*
X36900000Y-73300000D01*
X36800000Y-71874700D02*
X36900000Y-71774700D01*
X36900000Y-74339500D02*
X43163500Y-80603000D01*
X36900000Y-71774700D02*
X36900000Y-71590400D01*
X36800000Y-72537300D02*
X36800000Y-73200000D01*
%TO.N,Net-(R4-Pad2)*%
X40800000Y-74181500D02*
X42118500Y-75500000D01*
X40800000Y-73200000D02*
X40800000Y-74181500D01*
%TO.N,/MOT_B*%
X48800000Y-86948200D02*
X50514500Y-85233700D01*
X48800000Y-88200000D02*
X48800000Y-86948200D01*
X71220400Y-85500000D02*
X71400000Y-85500000D01*
X69600000Y-85500000D02*
X71220400Y-85500000D01*
X63414400Y-85000000D02*
X63180700Y-85233700D01*
X71220400Y-85500000D02*
X71375400Y-85655000D01*
X69100000Y-85000000D02*
X69600000Y-85500000D01*
X69100000Y-85000000D02*
X63414400Y-85000000D01*
%TO.N,/Spare*%
X75511900Y-72450300D02*
X76175400Y-73113800D01*
X42800000Y-73200000D02*
X42800000Y-74525300D01*
X95333900Y-77578600D02*
X95333900Y-81395600D01*
X78107600Y-75282400D02*
X93037700Y-75282400D01*
X95333900Y-81395600D02*
X94100000Y-82629500D01*
X94100000Y-82629500D02*
X94100000Y-84600000D01*
X60530400Y-81078300D02*
X60530400Y-79369600D01*
X60530400Y-79369600D02*
X67449700Y-72450300D01*
X76175400Y-73350200D02*
X78107600Y-75282400D01*
X76175400Y-73113800D02*
X76175400Y-73350200D01*
X42800000Y-74525300D02*
X43325700Y-75051000D01*
X67449700Y-72450300D02*
X75511900Y-72450300D01*
X43325700Y-75051000D02*
X43325700Y-78066400D01*
X93037700Y-75282400D02*
X95333900Y-77578600D01*
%TO.N,/MOT_A*%
X57635400Y-88235400D02*
X58419600Y-89019600D01*
X62815700Y-88190700D02*
X62815700Y-87309700D01*
X51125000Y-84575000D02*
X55402900Y-84575000D01*
X63525300Y-86600100D02*
X71050500Y-86600100D01*
X44800000Y-73200000D02*
X44800000Y-74525300D01*
X57635400Y-86807500D02*
X57635400Y-88235400D01*
X61986800Y-89019600D02*
X62815700Y-88190700D01*
X58419600Y-89019600D02*
X61986800Y-89019600D01*
X55402900Y-84575000D02*
X57635400Y-86807500D01*
X51125000Y-80850300D02*
X51125000Y-84575000D01*
X71050500Y-86600100D02*
X71375400Y-86925000D01*
X62815700Y-87309700D02*
X63525300Y-86600100D01*
X44800000Y-74525300D02*
X51125000Y-80850300D01*
%TD*%
%TA.AperFunction,Conductor*%
%TO.N,+3V8*%
G36*
X72467012Y-73638670D02*
G01*
X72473595Y-73644799D01*
X73321043Y-74492247D01*
X73328587Y-74500537D01*
X73332700Y-74507018D01*
X73338477Y-74512443D01*
X73382367Y-74553658D01*
X73385209Y-74556413D01*
X73404930Y-74576134D01*
X73408125Y-74578612D01*
X73417147Y-74586318D01*
X73449379Y-74616586D01*
X73456328Y-74620406D01*
X73467132Y-74626346D01*
X73483656Y-74637199D01*
X73499659Y-74649613D01*
X73540243Y-74667176D01*
X73550872Y-74672383D01*
X73576201Y-74686307D01*
X73626259Y-74736650D01*
X73641500Y-74796721D01*
X73641500Y-74998134D01*
X73648255Y-75060316D01*
X73699385Y-75196705D01*
X73786739Y-75313261D01*
X73903295Y-75400615D01*
X73911704Y-75403767D01*
X73911705Y-75403768D01*
X74020960Y-75444726D01*
X74077725Y-75487367D01*
X74102425Y-75553929D01*
X74087218Y-75623278D01*
X74067825Y-75649759D01*
X73944590Y-75778717D01*
X73938104Y-75786727D01*
X73818098Y-75962649D01*
X73813000Y-75971623D01*
X73723338Y-76164783D01*
X73719775Y-76174470D01*
X73664389Y-76374183D01*
X73665912Y-76382607D01*
X73678292Y-76386000D01*
X76318344Y-76386000D01*
X76331875Y-76382027D01*
X76333180Y-76372947D01*
X76291214Y-76205875D01*
X76287894Y-76196124D01*
X76202972Y-76000814D01*
X76198105Y-75991739D01*
X76082426Y-75812926D01*
X76076136Y-75804757D01*
X75932293Y-75646677D01*
X75901241Y-75582831D01*
X75909635Y-75512333D01*
X75954812Y-75457564D01*
X75981256Y-75443895D01*
X76088297Y-75403767D01*
X76096705Y-75400615D01*
X76213261Y-75313261D01*
X76300615Y-75196705D01*
X76351745Y-75060316D01*
X76358500Y-74998134D01*
X76358500Y-74733394D01*
X76378502Y-74665273D01*
X76432158Y-74618780D01*
X76502432Y-74608676D01*
X76567012Y-74638170D01*
X76573595Y-74644299D01*
X77603943Y-75674647D01*
X77611487Y-75682937D01*
X77615600Y-75689418D01*
X77621377Y-75694843D01*
X77665267Y-75736058D01*
X77668109Y-75738813D01*
X77687830Y-75758534D01*
X77691025Y-75761012D01*
X77700047Y-75768718D01*
X77732279Y-75798986D01*
X77739228Y-75802806D01*
X77750032Y-75808746D01*
X77766556Y-75819599D01*
X77782559Y-75832013D01*
X77823143Y-75849576D01*
X77833763Y-75854778D01*
X77836954Y-75856532D01*
X77887013Y-75906871D01*
X77901910Y-75976287D01*
X77890545Y-76019998D01*
X77823338Y-76164783D01*
X77819775Y-76174470D01*
X77764389Y-76374183D01*
X77765912Y-76382607D01*
X77778292Y-76386000D01*
X80418344Y-76386000D01*
X80431875Y-76382027D01*
X80433180Y-76372947D01*
X80391214Y-76205875D01*
X80387894Y-76196124D01*
X80342682Y-76092142D01*
X80333862Y-76021696D01*
X80364529Y-75957664D01*
X80424946Y-75920376D01*
X80458232Y-75915900D01*
X81841466Y-75915900D01*
X81909587Y-75935902D01*
X81956080Y-75989558D01*
X81966184Y-76059832D01*
X81955753Y-76094951D01*
X81923340Y-76164777D01*
X81919775Y-76174470D01*
X81864389Y-76374183D01*
X81865912Y-76382607D01*
X81878292Y-76386000D01*
X84518344Y-76386000D01*
X84531875Y-76382027D01*
X84533180Y-76372947D01*
X84491214Y-76205875D01*
X84487894Y-76196124D01*
X84442682Y-76092142D01*
X84433862Y-76021696D01*
X84464529Y-75957664D01*
X84524946Y-75920376D01*
X84558232Y-75915900D01*
X85941466Y-75915900D01*
X86009587Y-75935902D01*
X86056080Y-75989558D01*
X86066184Y-76059832D01*
X86055753Y-76094951D01*
X86023340Y-76164777D01*
X86019775Y-76174470D01*
X85964389Y-76374183D01*
X85965912Y-76382607D01*
X85978292Y-76386000D01*
X88618344Y-76386000D01*
X88631875Y-76382027D01*
X88633180Y-76372947D01*
X88591214Y-76205875D01*
X88587894Y-76196124D01*
X88542682Y-76092142D01*
X88533862Y-76021696D01*
X88564529Y-75957664D01*
X88624946Y-75920376D01*
X88658232Y-75915900D01*
X90029861Y-75915900D01*
X90097982Y-75935902D01*
X90144475Y-75989558D01*
X90154579Y-76059832D01*
X90144149Y-76094950D01*
X90123338Y-76139783D01*
X90119775Y-76149470D01*
X90064389Y-76349183D01*
X90065912Y-76357607D01*
X90078292Y-76361000D01*
X92718344Y-76361000D01*
X92731875Y-76357027D01*
X92733180Y-76347947D01*
X92691214Y-76180875D01*
X92686227Y-76166226D01*
X92687951Y-76165639D01*
X92680119Y-76103077D01*
X92710786Y-76039045D01*
X92771203Y-76001758D01*
X92842187Y-76003054D01*
X92893583Y-76034187D01*
X94663495Y-77804099D01*
X94697521Y-77866411D01*
X94700400Y-77893194D01*
X94700400Y-81081006D01*
X94680398Y-81149127D01*
X94663499Y-81170097D01*
X93707736Y-82125859D01*
X93699462Y-82133388D01*
X93692982Y-82137500D01*
X93687557Y-82143277D01*
X93646357Y-82187151D01*
X93643602Y-82189993D01*
X93623865Y-82209730D01*
X93621385Y-82212927D01*
X93613682Y-82221947D01*
X93583414Y-82254179D01*
X93579595Y-82261125D01*
X93579593Y-82261128D01*
X93573652Y-82271934D01*
X93562801Y-82288453D01*
X93550386Y-82304459D01*
X93547241Y-82311728D01*
X93547238Y-82311732D01*
X93532826Y-82345037D01*
X93527609Y-82355687D01*
X93506305Y-82394440D01*
X93504334Y-82402115D01*
X93504334Y-82402116D01*
X93501267Y-82414062D01*
X93494863Y-82432766D01*
X93486819Y-82451355D01*
X93485580Y-82459178D01*
X93485577Y-82459188D01*
X93479901Y-82495024D01*
X93477495Y-82506644D01*
X93466500Y-82549470D01*
X93466500Y-82569724D01*
X93464949Y-82589434D01*
X93461780Y-82609443D01*
X93462526Y-82617335D01*
X93465941Y-82653461D01*
X93466500Y-82665319D01*
X93466500Y-83363219D01*
X93446498Y-83431340D01*
X93406803Y-83470363D01*
X93275652Y-83551522D01*
X93150695Y-83676697D01*
X93146855Y-83682927D01*
X93146854Y-83682928D01*
X93065794Y-83814432D01*
X93057885Y-83827262D01*
X93025117Y-83926054D01*
X93003592Y-83990951D01*
X92963161Y-84049311D01*
X92897597Y-84076548D01*
X92827716Y-84064015D01*
X92775704Y-84015690D01*
X92757999Y-83951284D01*
X92757999Y-83905331D01*
X92757629Y-83898510D01*
X92752105Y-83847648D01*
X92748479Y-83832396D01*
X92703324Y-83711946D01*
X92694786Y-83696351D01*
X92618285Y-83594276D01*
X92605724Y-83581715D01*
X92503649Y-83505214D01*
X92488054Y-83496676D01*
X92367606Y-83451522D01*
X92352351Y-83447895D01*
X92301486Y-83442369D01*
X92294672Y-83442000D01*
X91672115Y-83442000D01*
X91656876Y-83446475D01*
X91655671Y-83447865D01*
X91654000Y-83455548D01*
X91654000Y-84928000D01*
X91633998Y-84996121D01*
X91580342Y-85042614D01*
X91528000Y-85054000D01*
X90060116Y-85054000D01*
X90044877Y-85058475D01*
X90043672Y-85059865D01*
X90042001Y-85067548D01*
X90042001Y-85423871D01*
X90021999Y-85491992D01*
X89968343Y-85538485D01*
X89951154Y-85544868D01*
X89936307Y-85549181D01*
X89929484Y-85553216D01*
X89918866Y-85559495D01*
X89901113Y-85568192D01*
X89893468Y-85571219D01*
X89882283Y-85575648D01*
X89875868Y-85580309D01*
X89846512Y-85601637D01*
X89836595Y-85608151D01*
X89798538Y-85630658D01*
X89784217Y-85644979D01*
X89769184Y-85657819D01*
X89752793Y-85669728D01*
X89731697Y-85695229D01*
X89724602Y-85703805D01*
X89716612Y-85712584D01*
X88701986Y-86727209D01*
X88639674Y-86761235D01*
X88568858Y-86756170D01*
X88512023Y-86713623D01*
X88502780Y-86699119D01*
X88501354Y-86695840D01*
X88498547Y-86691500D01*
X88382822Y-86512617D01*
X88382820Y-86512614D01*
X88380014Y-86508277D01*
X88376540Y-86504459D01*
X88376533Y-86504450D01*
X88232435Y-86346088D01*
X88201383Y-86282242D01*
X88209779Y-86211744D01*
X88254956Y-86156976D01*
X88281400Y-86143307D01*
X88388052Y-86103325D01*
X88403649Y-86094786D01*
X88505724Y-86018285D01*
X88518285Y-86005724D01*
X88594786Y-85903649D01*
X88603324Y-85888054D01*
X88648478Y-85767606D01*
X88652105Y-85752351D01*
X88657631Y-85701486D01*
X88658000Y-85694672D01*
X88658000Y-85072115D01*
X88653525Y-85056876D01*
X88652135Y-85055671D01*
X88644452Y-85054000D01*
X85960116Y-85054000D01*
X85944877Y-85058475D01*
X85943672Y-85059865D01*
X85942001Y-85067548D01*
X85942001Y-85694669D01*
X85942371Y-85701490D01*
X85947895Y-85752352D01*
X85951521Y-85767604D01*
X85996676Y-85888054D01*
X86005214Y-85903649D01*
X86081715Y-86005724D01*
X86094276Y-86018285D01*
X86196351Y-86094786D01*
X86211946Y-86103324D01*
X86320827Y-86144142D01*
X86377591Y-86186784D01*
X86402291Y-86253345D01*
X86387083Y-86322694D01*
X86367691Y-86349175D01*
X86245667Y-86476866D01*
X86240629Y-86482138D01*
X86237715Y-86486410D01*
X86237714Y-86486411D01*
X86166618Y-86590634D01*
X86114743Y-86666680D01*
X86112567Y-86671369D01*
X86112563Y-86671375D01*
X86055852Y-86793550D01*
X86009028Y-86846917D01*
X85941564Y-86866500D01*
X85824950Y-86866500D01*
X85756829Y-86846498D01*
X85743729Y-86835941D01*
X85743675Y-86836011D01*
X85737415Y-86831155D01*
X85731807Y-86825547D01*
X85724983Y-86821511D01*
X85724980Y-86821509D01*
X85595427Y-86744892D01*
X85595428Y-86744892D01*
X85588601Y-86740855D01*
X85580990Y-86738644D01*
X85580988Y-86738643D01*
X85528769Y-86723472D01*
X85428831Y-86694438D01*
X85422426Y-86693934D01*
X85422421Y-86693933D01*
X85393958Y-86691693D01*
X85393950Y-86691693D01*
X85391502Y-86691500D01*
X85147240Y-86691500D01*
X85079119Y-86671498D01*
X85032626Y-86617842D01*
X85022522Y-86547568D01*
X85025198Y-86534167D01*
X85031528Y-86509511D01*
X85031528Y-86509510D01*
X85033500Y-86501830D01*
X85033500Y-86481569D01*
X85035051Y-86461858D01*
X85036051Y-86455548D01*
X85038219Y-86441857D01*
X85034059Y-86397846D01*
X85033500Y-86385989D01*
X85033500Y-85936781D01*
X85053502Y-85868660D01*
X85093197Y-85829637D01*
X85197777Y-85764921D01*
X85224348Y-85748478D01*
X85260180Y-85712584D01*
X85344134Y-85628483D01*
X85349305Y-85623303D01*
X85359921Y-85606081D01*
X85438275Y-85478968D01*
X85438276Y-85478966D01*
X85442115Y-85472738D01*
X85497797Y-85304861D01*
X85498837Y-85294717D01*
X85505621Y-85228502D01*
X85508500Y-85200400D01*
X85508500Y-84527885D01*
X85942000Y-84527885D01*
X85946475Y-84543124D01*
X85947865Y-84544329D01*
X85955548Y-84546000D01*
X87027885Y-84546000D01*
X87043124Y-84541525D01*
X87044329Y-84540135D01*
X87046000Y-84532452D01*
X87046000Y-84527885D01*
X87554000Y-84527885D01*
X87558475Y-84543124D01*
X87559865Y-84544329D01*
X87567548Y-84546000D01*
X88639884Y-84546000D01*
X88655123Y-84541525D01*
X88656328Y-84540135D01*
X88657999Y-84532452D01*
X88657999Y-84527885D01*
X90042000Y-84527885D01*
X90046475Y-84543124D01*
X90047865Y-84544329D01*
X90055548Y-84546000D01*
X91127885Y-84546000D01*
X91143124Y-84541525D01*
X91144329Y-84540135D01*
X91146000Y-84532452D01*
X91146000Y-83460116D01*
X91141525Y-83444877D01*
X91140135Y-83443672D01*
X91132452Y-83442001D01*
X90505331Y-83442001D01*
X90498510Y-83442371D01*
X90447648Y-83447895D01*
X90432396Y-83451521D01*
X90311946Y-83496676D01*
X90296351Y-83505214D01*
X90194276Y-83581715D01*
X90181715Y-83594276D01*
X90105214Y-83696351D01*
X90096676Y-83711946D01*
X90051522Y-83832394D01*
X90047895Y-83847649D01*
X90042369Y-83898514D01*
X90042000Y-83905328D01*
X90042000Y-84527885D01*
X88657999Y-84527885D01*
X88657999Y-83905331D01*
X88657629Y-83898510D01*
X88652105Y-83847648D01*
X88648479Y-83832396D01*
X88603324Y-83711946D01*
X88594786Y-83696351D01*
X88518285Y-83594276D01*
X88505724Y-83581715D01*
X88403649Y-83505214D01*
X88388054Y-83496676D01*
X88267606Y-83451522D01*
X88252351Y-83447895D01*
X88201486Y-83442369D01*
X88194672Y-83442000D01*
X87572115Y-83442000D01*
X87556876Y-83446475D01*
X87555671Y-83447865D01*
X87554000Y-83455548D01*
X87554000Y-84527885D01*
X87046000Y-84527885D01*
X87046000Y-83460116D01*
X87041525Y-83444877D01*
X87040135Y-83443672D01*
X87032452Y-83442001D01*
X86405331Y-83442001D01*
X86398510Y-83442371D01*
X86347648Y-83447895D01*
X86332396Y-83451521D01*
X86211946Y-83496676D01*
X86196351Y-83505214D01*
X86094276Y-83581715D01*
X86081715Y-83594276D01*
X86005214Y-83696351D01*
X85996676Y-83711946D01*
X85951522Y-83832394D01*
X85947895Y-83847649D01*
X85942369Y-83898514D01*
X85942000Y-83905328D01*
X85942000Y-84527885D01*
X85508500Y-84527885D01*
X85508500Y-84199600D01*
X85506770Y-84182928D01*
X85498238Y-84100692D01*
X85498237Y-84100688D01*
X85497526Y-84093834D01*
X85482769Y-84049600D01*
X85443868Y-83933002D01*
X85441550Y-83926054D01*
X85348478Y-83775652D01*
X85348362Y-83775536D01*
X85322827Y-83712457D01*
X85335996Y-83642692D01*
X85346864Y-83625749D01*
X85349305Y-83623303D01*
X85400078Y-83540934D01*
X85438275Y-83478968D01*
X85438276Y-83478966D01*
X85442115Y-83472738D01*
X85468945Y-83391849D01*
X85495632Y-83311389D01*
X85495632Y-83311387D01*
X85497797Y-83304861D01*
X85508500Y-83200400D01*
X85508500Y-82199600D01*
X85507503Y-82189993D01*
X85498238Y-82100692D01*
X85498237Y-82100688D01*
X85497526Y-82093834D01*
X85476510Y-82030840D01*
X85443868Y-81933002D01*
X85441550Y-81926054D01*
X85348478Y-81775652D01*
X85223303Y-81650695D01*
X85217072Y-81646854D01*
X85078968Y-81561725D01*
X85078966Y-81561724D01*
X85072738Y-81557885D01*
X84992995Y-81531436D01*
X84911389Y-81504368D01*
X84911387Y-81504368D01*
X84904861Y-81502203D01*
X84898025Y-81501503D01*
X84898022Y-81501502D01*
X84854969Y-81497091D01*
X84800400Y-81491500D01*
X83999600Y-81491500D01*
X83996354Y-81491837D01*
X83996350Y-81491837D01*
X83900692Y-81501762D01*
X83900688Y-81501763D01*
X83893834Y-81502474D01*
X83887298Y-81504655D01*
X83887296Y-81504655D01*
X83871893Y-81509794D01*
X83726054Y-81558450D01*
X83575652Y-81651522D01*
X83497446Y-81729865D01*
X83489216Y-81738109D01*
X83426934Y-81772188D01*
X83356114Y-81767185D01*
X83311026Y-81738265D01*
X83282568Y-81709857D01*
X83270483Y-81697792D01*
X83236403Y-81635510D01*
X83233500Y-81608619D01*
X83233500Y-81269894D01*
X83253502Y-81201773D01*
X83270405Y-81180799D01*
X83592247Y-80858957D01*
X83600537Y-80851413D01*
X83607018Y-80847300D01*
X83653659Y-80797632D01*
X83656413Y-80794791D01*
X83676134Y-80775070D01*
X83678612Y-80771875D01*
X83686318Y-80762853D01*
X83693042Y-80755693D01*
X83716586Y-80730621D01*
X83726109Y-80713299D01*
X83726346Y-80712868D01*
X83737199Y-80696345D01*
X83744753Y-80686606D01*
X83749613Y-80680341D01*
X83767176Y-80639757D01*
X83772383Y-80629127D01*
X83793695Y-80590360D01*
X83795666Y-80582683D01*
X83795668Y-80582678D01*
X83798732Y-80570742D01*
X83805138Y-80552030D01*
X83805246Y-80551782D01*
X83813181Y-80533445D01*
X83814421Y-80525617D01*
X83814423Y-80525610D01*
X83820099Y-80489776D01*
X83822505Y-80478156D01*
X83833500Y-80435331D01*
X83835760Y-80435911D01*
X83859451Y-80381597D01*
X83891557Y-80354240D01*
X83893351Y-80353171D01*
X83897994Y-80350896D01*
X84079860Y-80221173D01*
X84238096Y-80063489D01*
X84244915Y-80054000D01*
X84365435Y-79886277D01*
X84368453Y-79882077D01*
X84377575Y-79863621D01*
X84465136Y-79686453D01*
X84465137Y-79686451D01*
X84467430Y-79681811D01*
X84517219Y-79517937D01*
X84530865Y-79473023D01*
X84530865Y-79473021D01*
X84532370Y-79468069D01*
X84561529Y-79246590D01*
X84562435Y-79209507D01*
X84563074Y-79183365D01*
X84563074Y-79183361D01*
X84563156Y-79180000D01*
X84560418Y-79146695D01*
X85937251Y-79146695D01*
X85937548Y-79151848D01*
X85937548Y-79151851D01*
X85948672Y-79344774D01*
X85950110Y-79369715D01*
X85951247Y-79374761D01*
X85951248Y-79374767D01*
X85972217Y-79467810D01*
X85999222Y-79587639D01*
X86060362Y-79738210D01*
X86080052Y-79786700D01*
X86083266Y-79794616D01*
X86085965Y-79799020D01*
X86194803Y-79976628D01*
X86199987Y-79985088D01*
X86346250Y-80153938D01*
X86518126Y-80296632D01*
X86711000Y-80409338D01*
X86715825Y-80411180D01*
X86715826Y-80411181D01*
X86765684Y-80430220D01*
X86919692Y-80489030D01*
X86924760Y-80490061D01*
X86924763Y-80490062D01*
X87032017Y-80511883D01*
X87138597Y-80533567D01*
X87143772Y-80533757D01*
X87143774Y-80533757D01*
X87356673Y-80541564D01*
X87356677Y-80541564D01*
X87361837Y-80541753D01*
X87366957Y-80541097D01*
X87366959Y-80541097D01*
X87578288Y-80514025D01*
X87578289Y-80514025D01*
X87583416Y-80513368D01*
X87598785Y-80508757D01*
X87792429Y-80450661D01*
X87792434Y-80450659D01*
X87797384Y-80449174D01*
X87997994Y-80350896D01*
X88179860Y-80221173D01*
X88338096Y-80063489D01*
X88344915Y-80054000D01*
X88465435Y-79886277D01*
X88468453Y-79882077D01*
X88477575Y-79863621D01*
X88565136Y-79686453D01*
X88565137Y-79686451D01*
X88567430Y-79681811D01*
X88617219Y-79517937D01*
X88630865Y-79473023D01*
X88630865Y-79473021D01*
X88632370Y-79468069D01*
X88661529Y-79246590D01*
X88662435Y-79209507D01*
X88663074Y-79183365D01*
X88663074Y-79183361D01*
X88663156Y-79180000D01*
X88658363Y-79121695D01*
X90037251Y-79121695D01*
X90037548Y-79126848D01*
X90037548Y-79126851D01*
X90044964Y-79255474D01*
X90050110Y-79344715D01*
X90051247Y-79349761D01*
X90051248Y-79349767D01*
X90071322Y-79438837D01*
X90099222Y-79562639D01*
X90183266Y-79769616D01*
X90299987Y-79960088D01*
X90446250Y-80128938D01*
X90618126Y-80271632D01*
X90811000Y-80384338D01*
X90815825Y-80386180D01*
X90815826Y-80386181D01*
X90864880Y-80404913D01*
X91019692Y-80464030D01*
X91024760Y-80465061D01*
X91024763Y-80465062D01*
X91132017Y-80486883D01*
X91238597Y-80508567D01*
X91243772Y-80508757D01*
X91243774Y-80508757D01*
X91456673Y-80516564D01*
X91456677Y-80516564D01*
X91461837Y-80516753D01*
X91466957Y-80516097D01*
X91466959Y-80516097D01*
X91678288Y-80489025D01*
X91678289Y-80489025D01*
X91683416Y-80488368D01*
X91698272Y-80483911D01*
X91892429Y-80425661D01*
X91892434Y-80425659D01*
X91897384Y-80424174D01*
X92097994Y-80325896D01*
X92279860Y-80196173D01*
X92292858Y-80183221D01*
X92434435Y-80042137D01*
X92438096Y-80038489D01*
X92473665Y-79988990D01*
X92565435Y-79861277D01*
X92568453Y-79857077D01*
X92583873Y-79825878D01*
X92665136Y-79661453D01*
X92665137Y-79661451D01*
X92667430Y-79656811D01*
X92723269Y-79473023D01*
X92730865Y-79448023D01*
X92730865Y-79448021D01*
X92732370Y-79443069D01*
X92761529Y-79221590D01*
X92762463Y-79183365D01*
X92763074Y-79158365D01*
X92763074Y-79158361D01*
X92763156Y-79155000D01*
X92744852Y-78932361D01*
X92690431Y-78715702D01*
X92601354Y-78510840D01*
X92498995Y-78352617D01*
X92482822Y-78327617D01*
X92482820Y-78327614D01*
X92480014Y-78323277D01*
X92329670Y-78158051D01*
X92325619Y-78154852D01*
X92325615Y-78154848D01*
X92158414Y-78022800D01*
X92158410Y-78022798D01*
X92154359Y-78019598D01*
X92112569Y-77996529D01*
X92062598Y-77946097D01*
X92047826Y-77876654D01*
X92072942Y-77810248D01*
X92100294Y-77783641D01*
X92275328Y-77658792D01*
X92283200Y-77652139D01*
X92434052Y-77501812D01*
X92440730Y-77493965D01*
X92565003Y-77321020D01*
X92570313Y-77312183D01*
X92664670Y-77121267D01*
X92668469Y-77111672D01*
X92730377Y-76907910D01*
X92732555Y-76897837D01*
X92733986Y-76886962D01*
X92731775Y-76872778D01*
X92718617Y-76869000D01*
X90083225Y-76869000D01*
X90069694Y-76872973D01*
X90068257Y-76882966D01*
X90098565Y-77017446D01*
X90101645Y-77027275D01*
X90181770Y-77224603D01*
X90186413Y-77233794D01*
X90297694Y-77415388D01*
X90303777Y-77423699D01*
X90443213Y-77584667D01*
X90450580Y-77591883D01*
X90614434Y-77727916D01*
X90622881Y-77733831D01*
X90691969Y-77774203D01*
X90740693Y-77825842D01*
X90753764Y-77895625D01*
X90727033Y-77961396D01*
X90686584Y-77994752D01*
X90673607Y-78001507D01*
X90669474Y-78004610D01*
X90669471Y-78004612D01*
X90527541Y-78111176D01*
X90494965Y-78135635D01*
X90469894Y-78161870D01*
X90349081Y-78288294D01*
X90340629Y-78297138D01*
X90214743Y-78481680D01*
X90120688Y-78684305D01*
X90060989Y-78899570D01*
X90037251Y-79121695D01*
X88658363Y-79121695D01*
X88644852Y-78957361D01*
X88590431Y-78740702D01*
X88501354Y-78535840D01*
X88414342Y-78401340D01*
X88382822Y-78352617D01*
X88382820Y-78352614D01*
X88380014Y-78348277D01*
X88229670Y-78183051D01*
X88225619Y-78179852D01*
X88225615Y-78179848D01*
X88058414Y-78047800D01*
X88058410Y-78047798D01*
X88054359Y-78044598D01*
X88012569Y-78021529D01*
X87962598Y-77971097D01*
X87947826Y-77901654D01*
X87972942Y-77835248D01*
X88000294Y-77808641D01*
X88175328Y-77683792D01*
X88183200Y-77677139D01*
X88334052Y-77526812D01*
X88340730Y-77518965D01*
X88465003Y-77346020D01*
X88470313Y-77337183D01*
X88564670Y-77146267D01*
X88568469Y-77136672D01*
X88630377Y-76932910D01*
X88632555Y-76922837D01*
X88633986Y-76911962D01*
X88631775Y-76897778D01*
X88618617Y-76894000D01*
X85983225Y-76894000D01*
X85969694Y-76897973D01*
X85968257Y-76907966D01*
X85998565Y-77042446D01*
X86001645Y-77052275D01*
X86081770Y-77249603D01*
X86086413Y-77258794D01*
X86197694Y-77440388D01*
X86203777Y-77448699D01*
X86343213Y-77609667D01*
X86350580Y-77616883D01*
X86514434Y-77752916D01*
X86522881Y-77758831D01*
X86591969Y-77799203D01*
X86640693Y-77850842D01*
X86653764Y-77920625D01*
X86627033Y-77986396D01*
X86586584Y-78019752D01*
X86573607Y-78026507D01*
X86569474Y-78029610D01*
X86569471Y-78029612D01*
X86399100Y-78157530D01*
X86394965Y-78160635D01*
X86388173Y-78167742D01*
X86264520Y-78297138D01*
X86240629Y-78322138D01*
X86114743Y-78506680D01*
X86100797Y-78536725D01*
X86032293Y-78684305D01*
X86020688Y-78709305D01*
X85960989Y-78924570D01*
X85937251Y-79146695D01*
X84560418Y-79146695D01*
X84544852Y-78957361D01*
X84490431Y-78740702D01*
X84401354Y-78535840D01*
X84314342Y-78401340D01*
X84282822Y-78352617D01*
X84282820Y-78352614D01*
X84280014Y-78348277D01*
X84129670Y-78183051D01*
X84125619Y-78179852D01*
X84125615Y-78179848D01*
X83958414Y-78047800D01*
X83958410Y-78047798D01*
X83954359Y-78044598D01*
X83912569Y-78021529D01*
X83862598Y-77971097D01*
X83847826Y-77901654D01*
X83872942Y-77835248D01*
X83900294Y-77808641D01*
X84075328Y-77683792D01*
X84083200Y-77677139D01*
X84234052Y-77526812D01*
X84240730Y-77518965D01*
X84365003Y-77346020D01*
X84370313Y-77337183D01*
X84464670Y-77146267D01*
X84468469Y-77136672D01*
X84530377Y-76932910D01*
X84532555Y-76922837D01*
X84533986Y-76911962D01*
X84531775Y-76897778D01*
X84518617Y-76894000D01*
X81883225Y-76894000D01*
X81869694Y-76897973D01*
X81868257Y-76907966D01*
X81898565Y-77042446D01*
X81901645Y-77052275D01*
X81981770Y-77249603D01*
X81986413Y-77258794D01*
X82097694Y-77440388D01*
X82103777Y-77448699D01*
X82243213Y-77609667D01*
X82250580Y-77616883D01*
X82414434Y-77752916D01*
X82422881Y-77758831D01*
X82491969Y-77799203D01*
X82540693Y-77850842D01*
X82553764Y-77920625D01*
X82527033Y-77986396D01*
X82486584Y-78019752D01*
X82473607Y-78026507D01*
X82469474Y-78029610D01*
X82469471Y-78029612D01*
X82299100Y-78157530D01*
X82294965Y-78160635D01*
X82288173Y-78167742D01*
X82164520Y-78297138D01*
X82140629Y-78322138D01*
X82014743Y-78506680D01*
X82000797Y-78536725D01*
X81932293Y-78684305D01*
X81920688Y-78709305D01*
X81860989Y-78924570D01*
X81837251Y-79146695D01*
X81837548Y-79151848D01*
X81837548Y-79151851D01*
X81848672Y-79344774D01*
X81850110Y-79369715D01*
X81851247Y-79374761D01*
X81851248Y-79374767D01*
X81872217Y-79467810D01*
X81899222Y-79587639D01*
X81960362Y-79738210D01*
X81980052Y-79786700D01*
X81983266Y-79794616D01*
X81985965Y-79799020D01*
X82094803Y-79976628D01*
X82099987Y-79985088D01*
X82246250Y-80153938D01*
X82281522Y-80183221D01*
X82321158Y-80242124D01*
X82322656Y-80313105D01*
X82290133Y-80369261D01*
X82207742Y-80451652D01*
X82199462Y-80459187D01*
X82192982Y-80463300D01*
X82151444Y-80507534D01*
X82146357Y-80512951D01*
X82143602Y-80515793D01*
X82123865Y-80535530D01*
X82121385Y-80538727D01*
X82113682Y-80547747D01*
X82083414Y-80579979D01*
X82079595Y-80586925D01*
X82079593Y-80586928D01*
X82073652Y-80597734D01*
X82062801Y-80614253D01*
X82050386Y-80630259D01*
X82047241Y-80637528D01*
X82047238Y-80637532D01*
X82032826Y-80670837D01*
X82027609Y-80681487D01*
X82006305Y-80720240D01*
X82004334Y-80727915D01*
X82004334Y-80727916D01*
X82001267Y-80739862D01*
X81994863Y-80758566D01*
X81990824Y-80767901D01*
X81986819Y-80777155D01*
X81985580Y-80784978D01*
X81985577Y-80784988D01*
X81979901Y-80820824D01*
X81977495Y-80832444D01*
X81969419Y-80863899D01*
X81966500Y-80875270D01*
X81966500Y-80895524D01*
X81964949Y-80915234D01*
X81961780Y-80935243D01*
X81962526Y-80943135D01*
X81965941Y-80979261D01*
X81966500Y-80991119D01*
X81966500Y-81387440D01*
X81946498Y-81455561D01*
X81892842Y-81502054D01*
X81880377Y-81506964D01*
X81726054Y-81558450D01*
X81575652Y-81651522D01*
X81450695Y-81776697D01*
X81446855Y-81782927D01*
X81446854Y-81782928D01*
X81373332Y-81902203D01*
X81357885Y-81927262D01*
X81355581Y-81934209D01*
X81318048Y-82047369D01*
X81302203Y-82095139D01*
X81301503Y-82101975D01*
X81301502Y-82101978D01*
X81300436Y-82112380D01*
X81291500Y-82199600D01*
X81291500Y-82860405D01*
X81271498Y-82928526D01*
X81254595Y-82949500D01*
X80908347Y-83295748D01*
X80900061Y-83303288D01*
X80893582Y-83307400D01*
X80888157Y-83313177D01*
X80846957Y-83357051D01*
X80844202Y-83359893D01*
X80824465Y-83379630D01*
X80821985Y-83382827D01*
X80814282Y-83391847D01*
X80784014Y-83424079D01*
X80780195Y-83431025D01*
X80780193Y-83431028D01*
X80774252Y-83441834D01*
X80763401Y-83458353D01*
X80750986Y-83474359D01*
X80747841Y-83481628D01*
X80747838Y-83481632D01*
X80733426Y-83514937D01*
X80728209Y-83525587D01*
X80706905Y-83564340D01*
X80702384Y-83581950D01*
X80701867Y-83583962D01*
X80695463Y-83602666D01*
X80687419Y-83621255D01*
X80686180Y-83629078D01*
X80686177Y-83629088D01*
X80680501Y-83664924D01*
X80678095Y-83676544D01*
X80669006Y-83711946D01*
X80667100Y-83719369D01*
X80664077Y-83718593D01*
X80641508Y-83770358D01*
X80582454Y-83809767D01*
X80511468Y-83810993D01*
X80466781Y-83788384D01*
X80358414Y-83702800D01*
X80358410Y-83702798D01*
X80354359Y-83699598D01*
X80336703Y-83689851D01*
X80254681Y-83644573D01*
X80158789Y-83591638D01*
X80153920Y-83589914D01*
X80153916Y-83589912D01*
X79953087Y-83518795D01*
X79953083Y-83518794D01*
X79948212Y-83517069D01*
X79785970Y-83488169D01*
X79748974Y-83481579D01*
X79710372Y-83467948D01*
X79684213Y-83453567D01*
X79679131Y-83451955D01*
X79674437Y-83449438D01*
X79585469Y-83422238D01*
X79584441Y-83421918D01*
X79495694Y-83393765D01*
X79490398Y-83393171D01*
X79485302Y-83391613D01*
X79392743Y-83382210D01*
X79391607Y-83382089D01*
X79357992Y-83378319D01*
X79345270Y-83376892D01*
X79345266Y-83376892D01*
X79341773Y-83376500D01*
X79338246Y-83376500D01*
X79337261Y-83376445D01*
X79331581Y-83375998D01*
X79302175Y-83373011D01*
X79294663Y-83372248D01*
X79294661Y-83372248D01*
X79288538Y-83371626D01*
X79246259Y-83375623D01*
X79242891Y-83375941D01*
X79231033Y-83376500D01*
X76574831Y-83376500D01*
X76571775Y-83376800D01*
X76571768Y-83376800D01*
X76516515Y-83382218D01*
X76427767Y-83390920D01*
X76421866Y-83392702D01*
X76421864Y-83392702D01*
X76390396Y-83402203D01*
X76238431Y-83448084D01*
X76063804Y-83540934D01*
X76059029Y-83544828D01*
X76059028Y-83544829D01*
X76048280Y-83553595D01*
X75982848Y-83581148D01*
X75968645Y-83581951D01*
X75867330Y-83581951D01*
X75863245Y-83582489D01*
X75863241Y-83582489D01*
X75762280Y-83595780D01*
X75762278Y-83595780D01*
X75754093Y-83596858D01*
X75613197Y-83655219D01*
X75606643Y-83660248D01*
X75534564Y-83715556D01*
X75492207Y-83748057D01*
X75399369Y-83869047D01*
X75341008Y-84009943D01*
X75326100Y-84123179D01*
X75326101Y-84646820D01*
X75326639Y-84650905D01*
X75326639Y-84650909D01*
X75339930Y-84751870D01*
X75341008Y-84760057D01*
X75399369Y-84900953D01*
X75404396Y-84907504D01*
X75432175Y-84943707D01*
X75457775Y-85009928D01*
X75443510Y-85079477D01*
X75432174Y-85097115D01*
X75404834Y-85132746D01*
X75396645Y-85146929D01*
X75344656Y-85272442D01*
X75340417Y-85288262D01*
X75327539Y-85386081D01*
X75331075Y-85398124D01*
X75332465Y-85399329D01*
X75340148Y-85401000D01*
X77904485Y-85401000D01*
X77912645Y-85398604D01*
X77948143Y-85393500D01*
X78278314Y-85393500D01*
X78346435Y-85413502D01*
X78385747Y-85453665D01*
X78395402Y-85469421D01*
X78499987Y-85640088D01*
X78646250Y-85808938D01*
X78650230Y-85812242D01*
X78654981Y-85816187D01*
X78694616Y-85875090D01*
X78696113Y-85946071D01*
X78658997Y-86006593D01*
X78618725Y-86031112D01*
X78600181Y-86038064D01*
X78503295Y-86074385D01*
X78386739Y-86161739D01*
X78299385Y-86278295D01*
X78248255Y-86414684D01*
X78241500Y-86476866D01*
X78241500Y-87060500D01*
X78221498Y-87128621D01*
X78167842Y-87175114D01*
X78115500Y-87186500D01*
X77957078Y-87186500D01*
X77930296Y-87183621D01*
X77909053Y-87179000D01*
X75344715Y-87179000D01*
X75329476Y-87183475D01*
X75328271Y-87184865D01*
X75327098Y-87190261D01*
X75327138Y-87190876D01*
X75340417Y-87291738D01*
X75344656Y-87307558D01*
X75396645Y-87433071D01*
X75404834Y-87447254D01*
X75432174Y-87482885D01*
X75457775Y-87549105D01*
X75443510Y-87618654D01*
X75432175Y-87636293D01*
X75399369Y-87679047D01*
X75341008Y-87819943D01*
X75326100Y-87933179D01*
X75326101Y-88456820D01*
X75326639Y-88460905D01*
X75326639Y-88460909D01*
X75339930Y-88561870D01*
X75341008Y-88570057D01*
X75399369Y-88710953D01*
X75404398Y-88717507D01*
X75423837Y-88742840D01*
X75492207Y-88831943D01*
X75498757Y-88836969D01*
X75602577Y-88916632D01*
X75613197Y-88924781D01*
X75754093Y-88983142D01*
X75867329Y-88998050D01*
X75966762Y-88998050D01*
X76034883Y-89018052D01*
X76046569Y-89026657D01*
X76047360Y-89027199D01*
X76052074Y-89031154D01*
X76225387Y-89126433D01*
X76231254Y-89128294D01*
X76231256Y-89128295D01*
X76338630Y-89162356D01*
X76413906Y-89186235D01*
X76567827Y-89203500D01*
X78743157Y-89203500D01*
X78756764Y-89204237D01*
X78788262Y-89207659D01*
X78788267Y-89207659D01*
X78794388Y-89208324D01*
X78820638Y-89206027D01*
X78844388Y-89203950D01*
X78849214Y-89203621D01*
X78851686Y-89203500D01*
X78854769Y-89203500D01*
X78866738Y-89202326D01*
X78897506Y-89199310D01*
X78898819Y-89199188D01*
X78943084Y-89195315D01*
X78991413Y-89191087D01*
X78996532Y-89189600D01*
X79001833Y-89189080D01*
X79090834Y-89162209D01*
X79091967Y-89161874D01*
X79175414Y-89137630D01*
X79175418Y-89137628D01*
X79181336Y-89135909D01*
X79186068Y-89133456D01*
X79191169Y-89131916D01*
X79207060Y-89123467D01*
X79273260Y-89088269D01*
X79274426Y-89087657D01*
X79351453Y-89047729D01*
X79356926Y-89044892D01*
X79361089Y-89041569D01*
X79365796Y-89039066D01*
X79437918Y-88980245D01*
X79438774Y-88979554D01*
X79477973Y-88948262D01*
X79480477Y-88945758D01*
X79481195Y-88945116D01*
X79485528Y-88941415D01*
X79519062Y-88914065D01*
X79548288Y-88878737D01*
X79556277Y-88869958D01*
X79655830Y-88770405D01*
X79718142Y-88736379D01*
X79744925Y-88733500D01*
X80498134Y-88733500D01*
X80501529Y-88733131D01*
X80501533Y-88733131D01*
X80527493Y-88730311D01*
X80597376Y-88742840D01*
X80649391Y-88791161D01*
X80667100Y-88855574D01*
X80667100Y-88940933D01*
X80666573Y-88952116D01*
X80664898Y-88959609D01*
X80665147Y-88967535D01*
X80665147Y-88967536D01*
X80667038Y-89027686D01*
X80667100Y-89031645D01*
X80667100Y-89059556D01*
X80667597Y-89063490D01*
X80667597Y-89063491D01*
X80667605Y-89063556D01*
X80668538Y-89075393D01*
X80669927Y-89119589D01*
X80675187Y-89137694D01*
X80675578Y-89139039D01*
X80679587Y-89158400D01*
X80682126Y-89178497D01*
X80685045Y-89185868D01*
X80685045Y-89185870D01*
X80698404Y-89219612D01*
X80702249Y-89230842D01*
X80714582Y-89273293D01*
X80718615Y-89280112D01*
X80718617Y-89280117D01*
X80724893Y-89290728D01*
X80733588Y-89308476D01*
X80741048Y-89327317D01*
X80745710Y-89333733D01*
X80745710Y-89333734D01*
X80767036Y-89363087D01*
X80773552Y-89373007D01*
X80796058Y-89411062D01*
X80810379Y-89425383D01*
X80823219Y-89440416D01*
X80835128Y-89456807D01*
X80856489Y-89474478D01*
X80869193Y-89484988D01*
X80877973Y-89492978D01*
X80989416Y-89604421D01*
X81023442Y-89666733D01*
X81018377Y-89737548D01*
X80975830Y-89794384D01*
X80909310Y-89819195D01*
X80900321Y-89819516D01*
X72872278Y-89819516D01*
X72804157Y-89799514D01*
X72757664Y-89745858D01*
X72747560Y-89675584D01*
X72777054Y-89611004D01*
X72783183Y-89604421D01*
X73345747Y-89041857D01*
X73354037Y-89034313D01*
X73360518Y-89030200D01*
X73407159Y-88980532D01*
X73409913Y-88977691D01*
X73429634Y-88957970D01*
X73432112Y-88954775D01*
X73439818Y-88945753D01*
X73460900Y-88923303D01*
X73470086Y-88913521D01*
X73479846Y-88895768D01*
X73490699Y-88879245D01*
X73496475Y-88871798D01*
X73503113Y-88863241D01*
X73520676Y-88822657D01*
X73525883Y-88812027D01*
X73547195Y-88773260D01*
X73549166Y-88765583D01*
X73549168Y-88765578D01*
X73552232Y-88753642D01*
X73558638Y-88734930D01*
X73563534Y-88723617D01*
X73566681Y-88716345D01*
X73569566Y-88698134D01*
X73573597Y-88672681D01*
X73576004Y-88661060D01*
X73585028Y-88625911D01*
X73585028Y-88625910D01*
X73587000Y-88618230D01*
X73587000Y-88597969D01*
X73588551Y-88578258D01*
X73588886Y-88576147D01*
X73591719Y-88558257D01*
X73587559Y-88514246D01*
X73587000Y-88502389D01*
X73587000Y-85920261D01*
X75327098Y-85920261D01*
X75327137Y-85920867D01*
X75340417Y-86021738D01*
X75344656Y-86037558D01*
X75396645Y-86163071D01*
X75404831Y-86177250D01*
X75432490Y-86213295D01*
X75458091Y-86279515D01*
X75443827Y-86349064D01*
X75432490Y-86366705D01*
X75404831Y-86402750D01*
X75396645Y-86416929D01*
X75344656Y-86542442D01*
X75340417Y-86558262D01*
X75327539Y-86656081D01*
X75331075Y-86668124D01*
X75332465Y-86669329D01*
X75340148Y-86671000D01*
X76352485Y-86671000D01*
X76367724Y-86666525D01*
X76368929Y-86665135D01*
X76370600Y-86657452D01*
X76370600Y-86652885D01*
X76878600Y-86652885D01*
X76883075Y-86668124D01*
X76884465Y-86669329D01*
X76892148Y-86671000D01*
X77904485Y-86671000D01*
X77919724Y-86666525D01*
X77920929Y-86665135D01*
X77922102Y-86659739D01*
X77922062Y-86659124D01*
X77908783Y-86558262D01*
X77904544Y-86542442D01*
X77852555Y-86416929D01*
X77844369Y-86402750D01*
X77816710Y-86366705D01*
X77791109Y-86300485D01*
X77805373Y-86230936D01*
X77816710Y-86213295D01*
X77844369Y-86177250D01*
X77852555Y-86163071D01*
X77904544Y-86037558D01*
X77908783Y-86021738D01*
X77921661Y-85923919D01*
X77918125Y-85911876D01*
X77916735Y-85910671D01*
X77909052Y-85909000D01*
X76896715Y-85909000D01*
X76881476Y-85913475D01*
X76880271Y-85914865D01*
X76878600Y-85922548D01*
X76878600Y-86652885D01*
X76370600Y-86652885D01*
X76370600Y-85927115D01*
X76366125Y-85911876D01*
X76364735Y-85910671D01*
X76357052Y-85909000D01*
X75344715Y-85909000D01*
X75329476Y-85913475D01*
X75328271Y-85914865D01*
X75327098Y-85920261D01*
X73587000Y-85920261D01*
X73587000Y-79921102D01*
X73607002Y-79852981D01*
X73660658Y-79806488D01*
X73730932Y-79796384D01*
X73795512Y-79825878D01*
X73820433Y-79855267D01*
X73894803Y-79976628D01*
X73899987Y-79985088D01*
X74046250Y-80153938D01*
X74218126Y-80296632D01*
X74411000Y-80409338D01*
X74415825Y-80411180D01*
X74415826Y-80411181D01*
X74465684Y-80430220D01*
X74619692Y-80489030D01*
X74624760Y-80490061D01*
X74624763Y-80490062D01*
X74732017Y-80511883D01*
X74838597Y-80533567D01*
X74843772Y-80533757D01*
X74843774Y-80533757D01*
X75056673Y-80541564D01*
X75056677Y-80541564D01*
X75061837Y-80541753D01*
X75066957Y-80541097D01*
X75066959Y-80541097D01*
X75278288Y-80514025D01*
X75278289Y-80514025D01*
X75283416Y-80513368D01*
X75298785Y-80508757D01*
X75492429Y-80450661D01*
X75492434Y-80450659D01*
X75497384Y-80449174D01*
X75697994Y-80350896D01*
X75879860Y-80221173D01*
X76038096Y-80063489D01*
X76044915Y-80054000D01*
X76165435Y-79886277D01*
X76168453Y-79882077D01*
X76177575Y-79863621D01*
X76265136Y-79686453D01*
X76265137Y-79686451D01*
X76267430Y-79681811D01*
X76317219Y-79517937D01*
X76330865Y-79473023D01*
X76330865Y-79473021D01*
X76332370Y-79468069D01*
X76361529Y-79246590D01*
X76362435Y-79209507D01*
X76363074Y-79183365D01*
X76363074Y-79183361D01*
X76363156Y-79180000D01*
X76360418Y-79146695D01*
X77737251Y-79146695D01*
X77737548Y-79151848D01*
X77737548Y-79151851D01*
X77748672Y-79344774D01*
X77750110Y-79369715D01*
X77751247Y-79374761D01*
X77751248Y-79374767D01*
X77772217Y-79467810D01*
X77799222Y-79587639D01*
X77860362Y-79738210D01*
X77880052Y-79786700D01*
X77883266Y-79794616D01*
X77885965Y-79799020D01*
X77994803Y-79976628D01*
X77999987Y-79985088D01*
X78146250Y-80153938D01*
X78318126Y-80296632D01*
X78511000Y-80409338D01*
X78515825Y-80411180D01*
X78515826Y-80411181D01*
X78565684Y-80430220D01*
X78719692Y-80489030D01*
X78724760Y-80490061D01*
X78724763Y-80490062D01*
X78832017Y-80511883D01*
X78938597Y-80533567D01*
X78943772Y-80533757D01*
X78943774Y-80533757D01*
X79156673Y-80541564D01*
X79156677Y-80541564D01*
X79161837Y-80541753D01*
X79166957Y-80541097D01*
X79166959Y-80541097D01*
X79378288Y-80514025D01*
X79378289Y-80514025D01*
X79383416Y-80513368D01*
X79398785Y-80508757D01*
X79592429Y-80450661D01*
X79592434Y-80450659D01*
X79597384Y-80449174D01*
X79797994Y-80350896D01*
X79979860Y-80221173D01*
X80138096Y-80063489D01*
X80144915Y-80054000D01*
X80265435Y-79886277D01*
X80268453Y-79882077D01*
X80277575Y-79863621D01*
X80365136Y-79686453D01*
X80365137Y-79686451D01*
X80367430Y-79681811D01*
X80417219Y-79517937D01*
X80430865Y-79473023D01*
X80430865Y-79473021D01*
X80432370Y-79468069D01*
X80461529Y-79246590D01*
X80462435Y-79209507D01*
X80463074Y-79183365D01*
X80463074Y-79183361D01*
X80463156Y-79180000D01*
X80444852Y-78957361D01*
X80390431Y-78740702D01*
X80301354Y-78535840D01*
X80214342Y-78401340D01*
X80182822Y-78352617D01*
X80182820Y-78352614D01*
X80180014Y-78348277D01*
X80029670Y-78183051D01*
X80025619Y-78179852D01*
X80025615Y-78179848D01*
X79858414Y-78047800D01*
X79858410Y-78047798D01*
X79854359Y-78044598D01*
X79812569Y-78021529D01*
X79762598Y-77971097D01*
X79747826Y-77901654D01*
X79772942Y-77835248D01*
X79800294Y-77808641D01*
X79975328Y-77683792D01*
X79983200Y-77677139D01*
X80134052Y-77526812D01*
X80140730Y-77518965D01*
X80265003Y-77346020D01*
X80270313Y-77337183D01*
X80364670Y-77146267D01*
X80368469Y-77136672D01*
X80430377Y-76932910D01*
X80432555Y-76922837D01*
X80433986Y-76911962D01*
X80431775Y-76897778D01*
X80418617Y-76894000D01*
X77783225Y-76894000D01*
X77769694Y-76897973D01*
X77768257Y-76907966D01*
X77798565Y-77042446D01*
X77801645Y-77052275D01*
X77881770Y-77249603D01*
X77886413Y-77258794D01*
X77997694Y-77440388D01*
X78003777Y-77448699D01*
X78143213Y-77609667D01*
X78150580Y-77616883D01*
X78314434Y-77752916D01*
X78322881Y-77758831D01*
X78391969Y-77799203D01*
X78440693Y-77850842D01*
X78453764Y-77920625D01*
X78427033Y-77986396D01*
X78386584Y-78019752D01*
X78373607Y-78026507D01*
X78369474Y-78029610D01*
X78369471Y-78029612D01*
X78199100Y-78157530D01*
X78194965Y-78160635D01*
X78188173Y-78167742D01*
X78064520Y-78297138D01*
X78040629Y-78322138D01*
X77914743Y-78506680D01*
X77900797Y-78536725D01*
X77832293Y-78684305D01*
X77820688Y-78709305D01*
X77760989Y-78924570D01*
X77737251Y-79146695D01*
X76360418Y-79146695D01*
X76344852Y-78957361D01*
X76290431Y-78740702D01*
X76201354Y-78535840D01*
X76114342Y-78401340D01*
X76082822Y-78352617D01*
X76082820Y-78352614D01*
X76080014Y-78348277D01*
X75929670Y-78183051D01*
X75925619Y-78179852D01*
X75925615Y-78179848D01*
X75758414Y-78047800D01*
X75758410Y-78047798D01*
X75754359Y-78044598D01*
X75712569Y-78021529D01*
X75662598Y-77971097D01*
X75647826Y-77901654D01*
X75672942Y-77835248D01*
X75700294Y-77808641D01*
X75875328Y-77683792D01*
X75883200Y-77677139D01*
X76034052Y-77526812D01*
X76040730Y-77518965D01*
X76165003Y-77346020D01*
X76170313Y-77337183D01*
X76264670Y-77146267D01*
X76268469Y-77136672D01*
X76330377Y-76932910D01*
X76332555Y-76922837D01*
X76333986Y-76911962D01*
X76331775Y-76897778D01*
X76318617Y-76894000D01*
X73683225Y-76894000D01*
X73669694Y-76897973D01*
X73668257Y-76907966D01*
X73698565Y-77042446D01*
X73701645Y-77052275D01*
X73781770Y-77249603D01*
X73786413Y-77258794D01*
X73897694Y-77440388D01*
X73903777Y-77448699D01*
X74043213Y-77609667D01*
X74050580Y-77616883D01*
X74214434Y-77752916D01*
X74222881Y-77758831D01*
X74291969Y-77799203D01*
X74340693Y-77850842D01*
X74353764Y-77920625D01*
X74327033Y-77986396D01*
X74286584Y-78019752D01*
X74273607Y-78026507D01*
X74269474Y-78029610D01*
X74269471Y-78029612D01*
X74099100Y-78157530D01*
X74094965Y-78160635D01*
X74088173Y-78167742D01*
X73964520Y-78297138D01*
X73940629Y-78322138D01*
X73814743Y-78506680D01*
X73800797Y-78536725D01*
X73732293Y-78684305D01*
X73720688Y-78709305D01*
X73660989Y-78924570D01*
X73660440Y-78929707D01*
X73645531Y-79069214D01*
X73618403Y-79134824D01*
X73560111Y-79175352D01*
X73489161Y-79177931D01*
X73428394Y-79142078D01*
X73423632Y-79137007D01*
X73418972Y-79130593D01*
X73411964Y-79124795D01*
X73384907Y-79102412D01*
X73376127Y-79094422D01*
X71957860Y-77676155D01*
X71923834Y-77613843D01*
X71928899Y-77543028D01*
X71944632Y-77513534D01*
X72065008Y-77346011D01*
X72070313Y-77337183D01*
X72164670Y-77146267D01*
X72168469Y-77136672D01*
X72230377Y-76932910D01*
X72232555Y-76922837D01*
X72233986Y-76911962D01*
X72231775Y-76897778D01*
X72218617Y-76894000D01*
X70772000Y-76894000D01*
X70703879Y-76873998D01*
X70657386Y-76820342D01*
X70646000Y-76768000D01*
X70646000Y-76512000D01*
X70666002Y-76443879D01*
X70719658Y-76397386D01*
X70772000Y-76386000D01*
X72218344Y-76386000D01*
X72231875Y-76382027D01*
X72233180Y-76372947D01*
X72191214Y-76205875D01*
X72187894Y-76196124D01*
X72102972Y-76000814D01*
X72098105Y-75991739D01*
X71982426Y-75812926D01*
X71976136Y-75804757D01*
X71832293Y-75646677D01*
X71801241Y-75582831D01*
X71809635Y-75512333D01*
X71854812Y-75457564D01*
X71881256Y-75443895D01*
X71988297Y-75403767D01*
X71996705Y-75400615D01*
X72113261Y-75313261D01*
X72200615Y-75196705D01*
X72251745Y-75060316D01*
X72258500Y-74998134D01*
X72258500Y-73733894D01*
X72278502Y-73665773D01*
X72332158Y-73619280D01*
X72402432Y-73609176D01*
X72467012Y-73638670D01*
G37*
%TD.AperFunction*%
%TA.AperFunction,Conductor*%
G36*
X56958621Y-79466002D02*
G01*
X57005114Y-79519658D01*
X57016500Y-79572000D01*
X57016500Y-80914884D01*
X57020975Y-80930123D01*
X57022365Y-80931328D01*
X57030048Y-80932999D01*
X57147095Y-80932999D01*
X57153614Y-80932662D01*
X57249206Y-80922743D01*
X57262600Y-80919851D01*
X57416784Y-80868412D01*
X57429962Y-80862239D01*
X57567807Y-80776937D01*
X57579208Y-80767901D01*
X57693738Y-80653172D01*
X57700794Y-80644238D01*
X57758712Y-80603177D01*
X57829635Y-80599947D01*
X57891046Y-80635574D01*
X57897846Y-80643407D01*
X57901522Y-80649348D01*
X57906704Y-80654521D01*
X57906708Y-80654526D01*
X57963844Y-80711562D01*
X57997924Y-80773844D01*
X57992921Y-80844664D01*
X57950393Y-80901560D01*
X57836739Y-80986739D01*
X57749385Y-81103295D01*
X57698255Y-81239684D01*
X57691500Y-81301866D01*
X57691500Y-82298134D01*
X57698255Y-82360316D01*
X57749385Y-82496705D01*
X57836739Y-82613261D01*
X57953295Y-82700615D01*
X58089684Y-82751745D01*
X58151866Y-82758500D01*
X59548134Y-82758500D01*
X59549030Y-82758403D01*
X59617663Y-82774582D01*
X59666989Y-82825645D01*
X59677244Y-82853953D01*
X59677474Y-82856166D01*
X59679654Y-82862699D01*
X59679654Y-82862701D01*
X59722710Y-82991754D01*
X59733450Y-83023946D01*
X59826522Y-83174348D01*
X59951697Y-83299305D01*
X59955916Y-83301906D01*
X59996417Y-83359030D01*
X59999649Y-83429953D01*
X59964024Y-83491365D01*
X59956470Y-83497922D01*
X59950652Y-83501522D01*
X59825695Y-83626697D01*
X59821855Y-83632927D01*
X59821854Y-83632928D01*
X59737141Y-83770358D01*
X59732885Y-83777262D01*
X59732675Y-83777894D01*
X59687569Y-83829129D01*
X59619293Y-83848593D01*
X59606682Y-83847860D01*
X59548134Y-83841500D01*
X58151866Y-83841500D01*
X58089684Y-83848255D01*
X57953295Y-83899385D01*
X57836739Y-83986739D01*
X57749385Y-84103295D01*
X57698255Y-84239684D01*
X57691500Y-84301866D01*
X57691500Y-85298134D01*
X57698255Y-85360316D01*
X57749385Y-85496705D01*
X57836739Y-85613261D01*
X57953295Y-85700615D01*
X58089684Y-85751745D01*
X58151866Y-85758500D01*
X59548134Y-85758500D01*
X59610316Y-85751745D01*
X59746705Y-85700615D01*
X59863261Y-85613261D01*
X59938444Y-85512945D01*
X59945485Y-85503550D01*
X60002344Y-85461035D01*
X60073163Y-85456009D01*
X60097659Y-85464278D01*
X60102262Y-85467115D01*
X60109210Y-85469419D01*
X60109213Y-85469421D01*
X60180167Y-85492955D01*
X60238527Y-85533386D01*
X60265764Y-85598950D01*
X60266500Y-85612548D01*
X60266500Y-85905933D01*
X60265973Y-85917116D01*
X60264298Y-85924609D01*
X60264547Y-85932535D01*
X60264547Y-85932536D01*
X60266438Y-85992686D01*
X60266500Y-85996645D01*
X60266500Y-86024556D01*
X60266997Y-86028490D01*
X60266997Y-86028491D01*
X60267005Y-86028556D01*
X60267938Y-86040393D01*
X60269327Y-86084589D01*
X60274978Y-86104039D01*
X60278987Y-86123400D01*
X60281526Y-86143497D01*
X60284445Y-86150868D01*
X60284445Y-86150870D01*
X60297804Y-86184612D01*
X60301649Y-86195842D01*
X60311771Y-86230683D01*
X60313982Y-86238293D01*
X60318015Y-86245112D01*
X60318017Y-86245117D01*
X60324293Y-86255728D01*
X60332988Y-86273476D01*
X60340448Y-86292317D01*
X60345110Y-86298733D01*
X60345110Y-86298734D01*
X60366436Y-86328087D01*
X60372952Y-86338007D01*
X60388434Y-86364185D01*
X60395458Y-86376062D01*
X60409779Y-86390383D01*
X60422619Y-86405416D01*
X60434528Y-86421807D01*
X60457945Y-86441179D01*
X60468605Y-86449998D01*
X60477384Y-86457988D01*
X60628529Y-86609133D01*
X60662555Y-86671445D01*
X60657490Y-86742260D01*
X60630529Y-86785277D01*
X60480629Y-86942138D01*
X60373201Y-87099621D01*
X60318293Y-87144621D01*
X60247768Y-87152792D01*
X60184021Y-87121538D01*
X60163324Y-87097054D01*
X60082822Y-86972617D01*
X60082820Y-86972614D01*
X60080014Y-86968277D01*
X59929670Y-86803051D01*
X59925619Y-86799852D01*
X59925615Y-86799848D01*
X59758414Y-86667800D01*
X59758410Y-86667798D01*
X59754359Y-86664598D01*
X59746447Y-86660230D01*
X59669660Y-86617842D01*
X59558789Y-86556638D01*
X59553920Y-86554914D01*
X59553916Y-86554912D01*
X59353087Y-86483795D01*
X59353083Y-86483794D01*
X59348212Y-86482069D01*
X59343119Y-86481162D01*
X59343116Y-86481161D01*
X59133373Y-86443800D01*
X59133367Y-86443799D01*
X59128284Y-86442894D01*
X59054452Y-86441992D01*
X58910081Y-86440228D01*
X58910079Y-86440228D01*
X58904911Y-86440165D01*
X58684091Y-86473955D01*
X58471756Y-86543357D01*
X58384158Y-86588958D01*
X58381449Y-86590368D01*
X58311790Y-86604081D01*
X58245775Y-86577956D01*
X58214815Y-86542743D01*
X58211099Y-86536459D01*
X58202412Y-86518724D01*
X58194952Y-86499883D01*
X58184861Y-86485993D01*
X58168964Y-86464113D01*
X58162448Y-86454193D01*
X58143980Y-86422965D01*
X58143978Y-86422962D01*
X58139942Y-86416138D01*
X58125621Y-86401817D01*
X58112780Y-86386783D01*
X58112203Y-86385989D01*
X58100872Y-86370393D01*
X58066795Y-86342202D01*
X58058016Y-86334212D01*
X55906552Y-84182747D01*
X55899012Y-84174461D01*
X55894900Y-84167982D01*
X55845248Y-84121356D01*
X55842407Y-84118602D01*
X55822670Y-84098865D01*
X55819473Y-84096385D01*
X55810451Y-84088680D01*
X55784000Y-84063841D01*
X55778221Y-84058414D01*
X55771275Y-84054595D01*
X55771272Y-84054593D01*
X55760466Y-84048652D01*
X55743947Y-84037801D01*
X55738822Y-84033826D01*
X55727941Y-84025386D01*
X55720672Y-84022241D01*
X55720668Y-84022238D01*
X55687363Y-84007826D01*
X55676713Y-84002609D01*
X55637960Y-83981305D01*
X55618337Y-83976267D01*
X55599634Y-83969863D01*
X55588320Y-83964967D01*
X55588319Y-83964967D01*
X55581045Y-83961819D01*
X55573222Y-83960580D01*
X55573212Y-83960577D01*
X55537376Y-83954901D01*
X55525756Y-83952495D01*
X55490611Y-83943472D01*
X55490610Y-83943472D01*
X55482930Y-83941500D01*
X55462676Y-83941500D01*
X55442965Y-83939949D01*
X55430786Y-83938020D01*
X55422957Y-83936780D01*
X55415065Y-83937526D01*
X55378939Y-83940941D01*
X55367081Y-83941500D01*
X53784500Y-83941500D01*
X53716379Y-83921498D01*
X53669886Y-83867842D01*
X53658500Y-83815500D01*
X53658500Y-83101866D01*
X53651745Y-83039684D01*
X53600615Y-82903295D01*
X53513261Y-82786739D01*
X53512026Y-82785813D01*
X53479792Y-82726783D01*
X53484857Y-82655968D01*
X53511414Y-82614645D01*
X53513261Y-82613261D01*
X53600615Y-82496705D01*
X53651745Y-82360316D01*
X53658500Y-82298134D01*
X53658500Y-81101866D01*
X53651745Y-81039684D01*
X53648973Y-81032288D01*
X53648971Y-81032282D01*
X53601519Y-80905705D01*
X53596336Y-80834898D01*
X53630257Y-80772529D01*
X53692512Y-80738400D01*
X53763336Y-80743347D01*
X53785617Y-80754216D01*
X53921243Y-80837816D01*
X53934424Y-80843963D01*
X54088710Y-80895138D01*
X54102086Y-80898005D01*
X54196438Y-80907672D01*
X54202854Y-80908000D01*
X54427885Y-80908000D01*
X54443124Y-80903525D01*
X54444329Y-80902135D01*
X54446000Y-80894452D01*
X54446000Y-80889884D01*
X54954000Y-80889884D01*
X54958475Y-80905123D01*
X54959865Y-80906328D01*
X54967548Y-80907999D01*
X55197095Y-80907999D01*
X55203614Y-80907662D01*
X55299206Y-80897743D01*
X55312600Y-80894851D01*
X55466784Y-80843412D01*
X55479962Y-80837239D01*
X55617807Y-80751937D01*
X55629208Y-80742901D01*
X55685805Y-80686205D01*
X55748087Y-80652126D01*
X55818907Y-80657129D01*
X55863996Y-80686050D01*
X55946829Y-80768739D01*
X55958240Y-80777751D01*
X56096243Y-80862816D01*
X56109424Y-80868963D01*
X56263710Y-80920138D01*
X56277086Y-80923005D01*
X56371438Y-80932672D01*
X56377854Y-80933000D01*
X56490385Y-80933000D01*
X56505624Y-80928525D01*
X56506829Y-80927135D01*
X56508500Y-80919452D01*
X56508500Y-79972115D01*
X56504025Y-79956876D01*
X56502635Y-79955671D01*
X56494952Y-79954000D01*
X55966115Y-79954000D01*
X55950876Y-79958475D01*
X55945157Y-79965075D01*
X55916753Y-80017094D01*
X55854441Y-80051120D01*
X55827656Y-80054000D01*
X54972115Y-80054000D01*
X54956876Y-80058475D01*
X54955671Y-80059865D01*
X54954000Y-80067548D01*
X54954000Y-80889884D01*
X54446000Y-80889884D01*
X54446000Y-79672000D01*
X54466002Y-79603879D01*
X54519658Y-79557386D01*
X54572000Y-79546000D01*
X55608885Y-79546000D01*
X55624124Y-79541525D01*
X55629843Y-79534925D01*
X55658247Y-79482906D01*
X55720559Y-79448880D01*
X55747344Y-79446000D01*
X56890500Y-79446000D01*
X56958621Y-79466002D01*
G37*
%TD.AperFunction*%
%TA.AperFunction,Conductor*%
G36*
X67833621Y-83033302D02*
G01*
X67880114Y-83086958D01*
X67891500Y-83139300D01*
X67891500Y-83400400D01*
X67891837Y-83403646D01*
X67891837Y-83403650D01*
X67901719Y-83498887D01*
X67902474Y-83506166D01*
X67904655Y-83512702D01*
X67904655Y-83512704D01*
X67931870Y-83594276D01*
X67958450Y-83673946D01*
X68051522Y-83824348D01*
X68132131Y-83904816D01*
X68138109Y-83910784D01*
X68172188Y-83973066D01*
X68167185Y-84043886D01*
X68138264Y-84088975D01*
X68104120Y-84123179D01*
X68050695Y-84176697D01*
X68046855Y-84182927D01*
X68046854Y-84182928D01*
X67970611Y-84306616D01*
X67917838Y-84354110D01*
X67863351Y-84366500D01*
X63493169Y-84366500D01*
X63481985Y-84365973D01*
X63474492Y-84364298D01*
X63466564Y-84364547D01*
X63464312Y-84364334D01*
X63449976Y-84362140D01*
X63282644Y-84326572D01*
X63282640Y-84326572D01*
X63276187Y-84325200D01*
X63085213Y-84325200D01*
X63078761Y-84326572D01*
X63078756Y-84326572D01*
X62991812Y-84345053D01*
X62898412Y-84364906D01*
X62892382Y-84367591D01*
X62892381Y-84367591D01*
X62729978Y-84439897D01*
X62729976Y-84439898D01*
X62723948Y-84442582D01*
X62718607Y-84446462D01*
X62718606Y-84446463D01*
X62716484Y-84448005D01*
X62569447Y-84554834D01*
X62565026Y-84559744D01*
X62565025Y-84559745D01*
X62486623Y-84646820D01*
X62441660Y-84696756D01*
X62438359Y-84702474D01*
X62368619Y-84823266D01*
X62317236Y-84872259D01*
X62247523Y-84885695D01*
X62181612Y-84859308D01*
X62140430Y-84801476D01*
X62133500Y-84760266D01*
X62133500Y-84049600D01*
X62132907Y-84043886D01*
X62123238Y-83950692D01*
X62123237Y-83950688D01*
X62122526Y-83943834D01*
X62109681Y-83905331D01*
X62068868Y-83783002D01*
X62066550Y-83776054D01*
X61973478Y-83625652D01*
X61848303Y-83500695D01*
X61844084Y-83498094D01*
X61803583Y-83440970D01*
X61800351Y-83370047D01*
X61835976Y-83308635D01*
X61843530Y-83302078D01*
X61849348Y-83298478D01*
X61974305Y-83173303D01*
X62036020Y-83073183D01*
X62088793Y-83025690D01*
X62143280Y-83013300D01*
X67765500Y-83013300D01*
X67833621Y-83033302D01*
G37*
%TD.AperFunction*%
%TD*%
M02*
