%TF.GenerationSoftware,KiCad,Pcbnew,(6.0.7)*%
%TF.CreationDate,2022-10-27T13:02:41+02:00*%
%TF.ProjectId,UniMini,556e694d-696e-4692-9e6b-696361645f70,rev?*%
%TF.SameCoordinates,Original*%
%TF.FileFunction,Legend,Bot*%
%TF.FilePolarity,Positive*%
%FSLAX46Y46*%
G04 Gerber Fmt 4.6, Leading zero omitted, Abs format (unit mm)*
G04 Created by KiCad (PCBNEW (6.0.7)) date 2022-10-27 13:02:41*
%MOMM*%
%LPD*%
G01*
G04 APERTURE LIST*
%ADD10C,0.150000*%
%ADD11C,0.120000*%
%ADD12C,0.250000*%
%ADD13C,0.127000*%
G04 APERTURE END LIST*
D10*
X57300000Y-73100000D02*
X55400000Y-73300000D01*
%TO.C,R6*%
X86666666Y-83152380D02*
X87000000Y-82676190D01*
X87238095Y-83152380D02*
X87238095Y-82152380D01*
X86857142Y-82152380D01*
X86761904Y-82200000D01*
X86714285Y-82247619D01*
X86666666Y-82342857D01*
X86666666Y-82485714D01*
X86714285Y-82580952D01*
X86761904Y-82628571D01*
X86857142Y-82676190D01*
X87238095Y-82676190D01*
X85809523Y-82152380D02*
X86000000Y-82152380D01*
X86095238Y-82200000D01*
X86142857Y-82247619D01*
X86238095Y-82390476D01*
X86285714Y-82580952D01*
X86285714Y-82961904D01*
X86238095Y-83057142D01*
X86190476Y-83104761D01*
X86095238Y-83152380D01*
X85904761Y-83152380D01*
X85809523Y-83104761D01*
X85761904Y-83057142D01*
X85714285Y-82961904D01*
X85714285Y-82723809D01*
X85761904Y-82628571D01*
X85809523Y-82580952D01*
X85904761Y-82533333D01*
X86095238Y-82533333D01*
X86190476Y-82580952D01*
X86238095Y-82628571D01*
X86285714Y-82723809D01*
%TO.C,U2*%
X53552380Y-83338095D02*
X54361904Y-83338095D01*
X54457142Y-83385714D01*
X54504761Y-83433333D01*
X54552380Y-83528571D01*
X54552380Y-83719047D01*
X54504761Y-83814285D01*
X54457142Y-83861904D01*
X54361904Y-83909523D01*
X53552380Y-83909523D01*
X53647619Y-84338095D02*
X53600000Y-84385714D01*
X53552380Y-84480952D01*
X53552380Y-84719047D01*
X53600000Y-84814285D01*
X53647619Y-84861904D01*
X53742857Y-84909523D01*
X53838095Y-84909523D01*
X53980952Y-84861904D01*
X54552380Y-84290476D01*
X54552380Y-84909523D01*
%TO.C,R9*%
X58466666Y-73452380D02*
X58800000Y-72976190D01*
X59038095Y-73452380D02*
X59038095Y-72452380D01*
X58657142Y-72452380D01*
X58561904Y-72500000D01*
X58514285Y-72547619D01*
X58466666Y-72642857D01*
X58466666Y-72785714D01*
X58514285Y-72880952D01*
X58561904Y-72928571D01*
X58657142Y-72976190D01*
X59038095Y-72976190D01*
X57990476Y-73452380D02*
X57800000Y-73452380D01*
X57704761Y-73404761D01*
X57657142Y-73357142D01*
X57561904Y-73214285D01*
X57514285Y-73023809D01*
X57514285Y-72642857D01*
X57561904Y-72547619D01*
X57609523Y-72500000D01*
X57704761Y-72452380D01*
X57895238Y-72452380D01*
X57990476Y-72500000D01*
X58038095Y-72547619D01*
X58085714Y-72642857D01*
X58085714Y-72880952D01*
X58038095Y-72976190D01*
X57990476Y-73023809D01*
X57895238Y-73071428D01*
X57704761Y-73071428D01*
X57609523Y-73023809D01*
X57561904Y-72976190D01*
X57514285Y-72880952D01*
%TO.C,C2*%
X60766666Y-80457142D02*
X60814285Y-80504761D01*
X60957142Y-80552380D01*
X61052380Y-80552380D01*
X61195238Y-80504761D01*
X61290476Y-80409523D01*
X61338095Y-80314285D01*
X61385714Y-80123809D01*
X61385714Y-79980952D01*
X61338095Y-79790476D01*
X61290476Y-79695238D01*
X61195238Y-79600000D01*
X61052380Y-79552380D01*
X60957142Y-79552380D01*
X60814285Y-79600000D01*
X60766666Y-79647619D01*
X60385714Y-79647619D02*
X60338095Y-79600000D01*
X60242857Y-79552380D01*
X60004761Y-79552380D01*
X59909523Y-79600000D01*
X59861904Y-79647619D01*
X59814285Y-79742857D01*
X59814285Y-79838095D01*
X59861904Y-79980952D01*
X60433333Y-80552380D01*
X59814285Y-80552380D01*
%TO.C,U3*%
X74761904Y-81518780D02*
X74761904Y-82328304D01*
X74714285Y-82423542D01*
X74666666Y-82471161D01*
X74571428Y-82518780D01*
X74380952Y-82518780D01*
X74285714Y-82471161D01*
X74238095Y-82423542D01*
X74190476Y-82328304D01*
X74190476Y-81518780D01*
X73809523Y-81518780D02*
X73190476Y-81518780D01*
X73523809Y-81899733D01*
X73380952Y-81899733D01*
X73285714Y-81947352D01*
X73238095Y-81994971D01*
X73190476Y-82090209D01*
X73190476Y-82328304D01*
X73238095Y-82423542D01*
X73285714Y-82471161D01*
X73380952Y-82518780D01*
X73666666Y-82518780D01*
X73761904Y-82471161D01*
X73809523Y-82423542D01*
%TO.C,R7*%
X86566666Y-81852380D02*
X86900000Y-81376190D01*
X87138095Y-81852380D02*
X87138095Y-80852380D01*
X86757142Y-80852380D01*
X86661904Y-80900000D01*
X86614285Y-80947619D01*
X86566666Y-81042857D01*
X86566666Y-81185714D01*
X86614285Y-81280952D01*
X86661904Y-81328571D01*
X86757142Y-81376190D01*
X87138095Y-81376190D01*
X86233333Y-80852380D02*
X85566666Y-80852380D01*
X85995238Y-81852380D01*
%TO.C,R10*%
X95742857Y-83402380D02*
X96076190Y-82926190D01*
X96314285Y-83402380D02*
X96314285Y-82402380D01*
X95933333Y-82402380D01*
X95838095Y-82450000D01*
X95790476Y-82497619D01*
X95742857Y-82592857D01*
X95742857Y-82735714D01*
X95790476Y-82830952D01*
X95838095Y-82878571D01*
X95933333Y-82926190D01*
X96314285Y-82926190D01*
X94790476Y-83402380D02*
X95361904Y-83402380D01*
X95076190Y-83402380D02*
X95076190Y-82402380D01*
X95171428Y-82545238D01*
X95266666Y-82640476D01*
X95361904Y-82688095D01*
X94171428Y-82402380D02*
X94076190Y-82402380D01*
X93980952Y-82450000D01*
X93933333Y-82497619D01*
X93885714Y-82592857D01*
X93838095Y-82783333D01*
X93838095Y-83021428D01*
X93885714Y-83211904D01*
X93933333Y-83307142D01*
X93980952Y-83354761D01*
X94076190Y-83402380D01*
X94171428Y-83402380D01*
X94266666Y-83354761D01*
X94314285Y-83307142D01*
X94361904Y-83211904D01*
X94409523Y-83021428D01*
X94409523Y-82783333D01*
X94361904Y-82592857D01*
X94314285Y-82497619D01*
X94266666Y-82450000D01*
X94171428Y-82402380D01*
%TO.C,R5*%
X67952380Y-84333333D02*
X67476190Y-84000000D01*
X67952380Y-83761904D02*
X66952380Y-83761904D01*
X66952380Y-84142857D01*
X67000000Y-84238095D01*
X67047619Y-84285714D01*
X67142857Y-84333333D01*
X67285714Y-84333333D01*
X67380952Y-84285714D01*
X67428571Y-84238095D01*
X67476190Y-84142857D01*
X67476190Y-83761904D01*
X66952380Y-85238095D02*
X66952380Y-84761904D01*
X67428571Y-84714285D01*
X67380952Y-84761904D01*
X67333333Y-84857142D01*
X67333333Y-85095238D01*
X67380952Y-85190476D01*
X67428571Y-85238095D01*
X67523809Y-85285714D01*
X67761904Y-85285714D01*
X67857142Y-85238095D01*
X67904761Y-85190476D01*
X67952380Y-85095238D01*
X67952380Y-84857142D01*
X67904761Y-84761904D01*
X67857142Y-84714285D01*
%TO.C,C3*%
X62937142Y-83033333D02*
X62984761Y-82985714D01*
X63032380Y-82842857D01*
X63032380Y-82747619D01*
X62984761Y-82604761D01*
X62889523Y-82509523D01*
X62794285Y-82461904D01*
X62603809Y-82414285D01*
X62460952Y-82414285D01*
X62270476Y-82461904D01*
X62175238Y-82509523D01*
X62080000Y-82604761D01*
X62032380Y-82747619D01*
X62032380Y-82842857D01*
X62080000Y-82985714D01*
X62127619Y-83033333D01*
X62032380Y-83366666D02*
X62032380Y-83985714D01*
X62413333Y-83652380D01*
X62413333Y-83795238D01*
X62460952Y-83890476D01*
X62508571Y-83938095D01*
X62603809Y-83985714D01*
X62841904Y-83985714D01*
X62937142Y-83938095D01*
X62984761Y-83890476D01*
X63032380Y-83795238D01*
X63032380Y-83509523D01*
X62984761Y-83414285D01*
X62937142Y-83366666D01*
D11*
%TO.C,Q1*%
X83866666Y-90183333D02*
X83933333Y-90150000D01*
X84000000Y-90083333D01*
X84100000Y-89983333D01*
X84166666Y-89950000D01*
X84233333Y-89950000D01*
X84200000Y-90116666D02*
X84266666Y-90083333D01*
X84333333Y-90016666D01*
X84366666Y-89883333D01*
X84366666Y-89650000D01*
X84333333Y-89516666D01*
X84266666Y-89450000D01*
X84200000Y-89416666D01*
X84066666Y-89416666D01*
X84000000Y-89450000D01*
X83933333Y-89516666D01*
X83900000Y-89650000D01*
X83900000Y-89883333D01*
X83933333Y-90016666D01*
X84000000Y-90083333D01*
X84066666Y-90116666D01*
X84200000Y-90116666D01*
X83233333Y-90116666D02*
X83633333Y-90116666D01*
X83433333Y-90116666D02*
X83433333Y-89416666D01*
X83500000Y-89516666D01*
X83566666Y-89583333D01*
X83633333Y-89616666D01*
D10*
%TO.C,C6*%
X58466666Y-71957142D02*
X58514285Y-72004761D01*
X58657142Y-72052380D01*
X58752380Y-72052380D01*
X58895238Y-72004761D01*
X58990476Y-71909523D01*
X59038095Y-71814285D01*
X59085714Y-71623809D01*
X59085714Y-71480952D01*
X59038095Y-71290476D01*
X58990476Y-71195238D01*
X58895238Y-71100000D01*
X58752380Y-71052380D01*
X58657142Y-71052380D01*
X58514285Y-71100000D01*
X58466666Y-71147619D01*
X57609523Y-71052380D02*
X57800000Y-71052380D01*
X57895238Y-71100000D01*
X57942857Y-71147619D01*
X58038095Y-71290476D01*
X58085714Y-71480952D01*
X58085714Y-71861904D01*
X58038095Y-71957142D01*
X57990476Y-72004761D01*
X57895238Y-72052380D01*
X57704761Y-72052380D01*
X57609523Y-72004761D01*
X57561904Y-71957142D01*
X57514285Y-71861904D01*
X57514285Y-71623809D01*
X57561904Y-71528571D01*
X57609523Y-71480952D01*
X57704761Y-71433333D01*
X57895238Y-71433333D01*
X57990476Y-71480952D01*
X58038095Y-71528571D01*
X58085714Y-71623809D01*
%TO.C,R8*%
X54552380Y-81333333D02*
X54076190Y-81000000D01*
X54552380Y-80761904D02*
X53552380Y-80761904D01*
X53552380Y-81142857D01*
X53600000Y-81238095D01*
X53647619Y-81285714D01*
X53742857Y-81333333D01*
X53885714Y-81333333D01*
X53980952Y-81285714D01*
X54028571Y-81238095D01*
X54076190Y-81142857D01*
X54076190Y-80761904D01*
X53980952Y-81904761D02*
X53933333Y-81809523D01*
X53885714Y-81761904D01*
X53790476Y-81714285D01*
X53742857Y-81714285D01*
X53647619Y-81761904D01*
X53600000Y-81809523D01*
X53552380Y-81904761D01*
X53552380Y-82095238D01*
X53600000Y-82190476D01*
X53647619Y-82238095D01*
X53742857Y-82285714D01*
X53790476Y-82285714D01*
X53885714Y-82238095D01*
X53933333Y-82190476D01*
X53980952Y-82095238D01*
X53980952Y-81904761D01*
X54028571Y-81809523D01*
X54076190Y-81761904D01*
X54171428Y-81714285D01*
X54361904Y-81714285D01*
X54457142Y-81761904D01*
X54504761Y-81809523D01*
X54552380Y-81904761D01*
X54552380Y-82095238D01*
X54504761Y-82190476D01*
X54457142Y-82238095D01*
X54361904Y-82285714D01*
X54171428Y-82285714D01*
X54076190Y-82238095D01*
X54028571Y-82190476D01*
X53980952Y-82095238D01*
%TO.C,U1*%
X46662492Y-70851958D02*
X46662492Y-71662106D01*
X46614837Y-71757418D01*
X46567181Y-71805074D01*
X46471869Y-71852730D01*
X46281246Y-71852730D01*
X46185934Y-71805074D01*
X46138279Y-71757418D01*
X46090623Y-71662106D01*
X46090623Y-70851958D01*
X45089851Y-71852730D02*
X45661720Y-71852730D01*
X45375786Y-71852730D02*
X45375786Y-70851958D01*
X45471097Y-70994925D01*
X45566409Y-71090237D01*
X45661720Y-71137893D01*
%TO.C,Q2*%
X95495238Y-90247619D02*
X95590476Y-90200000D01*
X95685714Y-90104761D01*
X95828571Y-89961904D01*
X95923809Y-89914285D01*
X96019047Y-89914285D01*
X95971428Y-90152380D02*
X96066666Y-90104761D01*
X96161904Y-90009523D01*
X96209523Y-89819047D01*
X96209523Y-89485714D01*
X96161904Y-89295238D01*
X96066666Y-89200000D01*
X95971428Y-89152380D01*
X95780952Y-89152380D01*
X95685714Y-89200000D01*
X95590476Y-89295238D01*
X95542857Y-89485714D01*
X95542857Y-89819047D01*
X95590476Y-90009523D01*
X95685714Y-90104761D01*
X95780952Y-90152380D01*
X95971428Y-90152380D01*
X95161904Y-89247619D02*
X95114285Y-89200000D01*
X95019047Y-89152380D01*
X94780952Y-89152380D01*
X94685714Y-89200000D01*
X94638095Y-89247619D01*
X94590476Y-89342857D01*
X94590476Y-89438095D01*
X94638095Y-89580952D01*
X95209523Y-90152380D01*
X94590476Y-90152380D01*
%TO.C,R11*%
X100302380Y-86457142D02*
X99826190Y-86123809D01*
X100302380Y-85885714D02*
X99302380Y-85885714D01*
X99302380Y-86266666D01*
X99350000Y-86361904D01*
X99397619Y-86409523D01*
X99492857Y-86457142D01*
X99635714Y-86457142D01*
X99730952Y-86409523D01*
X99778571Y-86361904D01*
X99826190Y-86266666D01*
X99826190Y-85885714D01*
X100302380Y-87409523D02*
X100302380Y-86838095D01*
X100302380Y-87123809D02*
X99302380Y-87123809D01*
X99445238Y-87028571D01*
X99540476Y-86933333D01*
X99588095Y-86838095D01*
X100302380Y-88361904D02*
X100302380Y-87790476D01*
X100302380Y-88076190D02*
X99302380Y-88076190D01*
X99445238Y-87980952D01*
X99540476Y-87885714D01*
X99588095Y-87790476D01*
D11*
%TO.C,R6*%
X83627064Y-83965000D02*
X83172936Y-83965000D01*
X83627064Y-85435000D02*
X83172936Y-85435000D01*
%TO.C,U2*%
X55540000Y-84350000D02*
X55540000Y-85660000D01*
X58260000Y-80940000D02*
X55540000Y-80940000D01*
X58260000Y-80940000D02*
X58260000Y-81170000D01*
X59400000Y-81170000D02*
X58260000Y-81170000D01*
X55540000Y-85660000D02*
X58260000Y-85660000D01*
X58260000Y-85660000D02*
X58260000Y-85430000D01*
X55540000Y-80940000D02*
X55540000Y-82250000D01*
%TO.C,R9*%
X55435000Y-74672936D02*
X55435000Y-75127064D01*
X53965000Y-74672936D02*
X53965000Y-75127064D01*
%TO.C,C2*%
X57538748Y-80435000D02*
X58061252Y-80435000D01*
X57538748Y-78965000D02*
X58061252Y-78965000D01*
%TO.C,U3*%
X75950000Y-83776400D02*
X72050000Y-83776400D01*
X75950000Y-88803600D02*
X72050000Y-88803600D01*
D12*
X76807300Y-83586400D02*
G75*
G03*
X76807300Y-83586400I-125000J0D01*
G01*
D11*
%TO.C,R7*%
X83172936Y-81965000D02*
X83627064Y-81965000D01*
X83172936Y-83435000D02*
X83627064Y-83435000D01*
%TO.C,R10*%
X95327064Y-85335000D02*
X94872936Y-85335000D01*
X95327064Y-83865000D02*
X94872936Y-83865000D01*
%TO.C,R5*%
X68365000Y-83772936D02*
X68365000Y-84227064D01*
X69835000Y-83772936D02*
X69835000Y-84227064D01*
%TO.C,C3*%
X60165000Y-83661252D02*
X60165000Y-83138748D01*
X61635000Y-83661252D02*
X61635000Y-83138748D01*
%TO.C,Q1*%
X83800000Y-89060000D02*
X82125000Y-89060000D01*
X83800000Y-85940000D02*
X84450000Y-85940000D01*
X83800000Y-89060000D02*
X84450000Y-89060000D01*
X83800000Y-85940000D02*
X83150000Y-85940000D01*
%TO.C,C6*%
X55238748Y-72635000D02*
X55761252Y-72635000D01*
X55238748Y-71165000D02*
X55761252Y-71165000D01*
%TO.C,R8*%
X55435000Y-78572936D02*
X55435000Y-79027064D01*
X53965000Y-78572936D02*
X53965000Y-79027064D01*
D13*
%TO.C,U1*%
X51800000Y-72700000D02*
X52300000Y-72700000D01*
X35800000Y-72700000D02*
X28300000Y-72700000D01*
X28300000Y-88700000D02*
X35800000Y-88700000D01*
X36060000Y-74700000D02*
X36060000Y-86700000D01*
X51800000Y-88700000D02*
X52300000Y-88700000D01*
X28300000Y-72700000D02*
X28300000Y-88700000D01*
X36060000Y-86700000D02*
X51060000Y-86700000D01*
X52300000Y-72700000D02*
X52300000Y-74700000D01*
X52300000Y-88700000D02*
X52300000Y-86700000D01*
X51060000Y-74700000D02*
X36060000Y-74700000D01*
X51060000Y-86700000D02*
X51060000Y-74700000D01*
X36175000Y-71450000D02*
G75*
G03*
X36175000Y-71450000I-250000J0D01*
G01*
D11*
%TO.C,Q2*%
X95200000Y-85740000D02*
X96875000Y-85740000D01*
X95200000Y-85740000D02*
X94550000Y-85740000D01*
X95200000Y-88860000D02*
X94550000Y-88860000D01*
X95200000Y-88860000D02*
X95850000Y-88860000D01*
%TO.C,R11*%
X98935000Y-87327064D02*
X98935000Y-86872936D01*
X97465000Y-87327064D02*
X97465000Y-86872936D01*
%TD*%
M02*
