M48
; DRILL file {KiCad (6.0.7)} date Thu Oct 27 13:02:33 2022
; FORMAT={-:-/ absolute / metric / decimal}
; #@! TF.CreationDate,2022-10-27T13:02:33+02:00
; #@! TF.GenerationSoftware,Kicad,Pcbnew,(6.0.7)
; #@! TF.FileFunction,Plated,1,2,PTH
FMAT,2
METRIC
; #@! TA.AperFunction,Plated,PTH,ViaDrill
T1C0.400
; #@! TA.AperFunction,Plated,PTH,ComponentDrill
T2C1.000
%
G90
G05
T1
X36.9Y-71.59
X38.51Y-71.584
X42.118Y-75.5
X43.163Y-80.603
X43.326Y-78.066
X43.637Y-85.304
X44.259Y-75.742
X44.539Y-86.582
X45.525Y-79.787
X49.466Y-83.503
X50.514Y-85.234
X52.045Y-73.897
X60.53Y-81.078
X63.181Y-85.234
X63.445Y-81.654
X67.387Y-83.375
X71.792Y-89.699
X93.1Y-77.3
X93.75Y-77.95
T2
X56.46Y-87.8
X57.3Y-74.8
X57.3Y-77.34
X59.0Y-87.8
X61.54Y-87.8
X64.08Y-87.8
X66.62Y-87.8
X69.16Y-87.8
X70.9Y-74.1
X70.9Y-76.64
X70.9Y-79.18
X75.0Y-74.1
X75.0Y-76.64
X75.0Y-79.18
X79.1Y-74.1
X79.1Y-76.64
X79.1Y-79.18
X79.6Y-84.835
X79.6Y-87.375
X83.2Y-74.1
X83.2Y-76.64
X83.2Y-79.18
X87.3Y-74.1
X87.3Y-76.64
X87.3Y-79.18
X87.3Y-84.8
X87.3Y-87.34
X91.4Y-74.075
X91.4Y-76.615
X91.4Y-79.155
X91.4Y-84.8
X91.4Y-87.34
T0
M30
