%TF.GenerationSoftware,KiCad,Pcbnew,(6.0.7)*%
%TF.CreationDate,2022-10-27T13:02:41+02:00*%
%TF.ProjectId,UniMini,556e694d-696e-4692-9e6b-696361645f70,rev?*%
%TF.SameCoordinates,Original*%
%TF.FileFunction,Soldermask,Top*%
%TF.FilePolarity,Negative*%
%FSLAX46Y46*%
G04 Gerber Fmt 4.6, Leading zero omitted, Abs format (unit mm)*
G04 Created by KiCad (PCBNEW (6.0.7)) date 2022-10-27 13:02:41*
%MOMM*%
%LPD*%
G01*
G04 APERTURE LIST*
G04 Aperture macros list*
%AMRoundRect*
0 Rectangle with rounded corners*
0 $1 Rounding radius*
0 $2 $3 $4 $5 $6 $7 $8 $9 X,Y pos of 4 corners*
0 Add a 4 corners polygon primitive as box body*
4,1,4,$2,$3,$4,$5,$6,$7,$8,$9,$2,$3,0*
0 Add four circle primitives for the rounded corners*
1,1,$1+$1,$2,$3*
1,1,$1+$1,$4,$5*
1,1,$1+$1,$6,$7*
1,1,$1+$1,$8,$9*
0 Add four rect primitives between the rounded corners*
20,1,$1+$1,$2,$3,$4,$5,0*
20,1,$1+$1,$4,$5,$6,$7,0*
20,1,$1+$1,$6,$7,$8,$9,0*
20,1,$1+$1,$8,$9,$2,$3,0*%
G04 Aperture macros list end*
%ADD10RoundRect,0.250000X-1.000000X1.950000X-1.000000X-1.950000X1.000000X-1.950000X1.000000X1.950000X0*%
%ADD11R,1.700000X1.700000*%
%ADD12O,1.700000X1.700000*%
%ADD13RoundRect,0.250000X-0.450000X0.350000X-0.450000X-0.350000X0.450000X-0.350000X0.450000X0.350000X0*%
%ADD14RoundRect,0.250000X0.450000X-0.350000X0.450000X0.350000X-0.450000X0.350000X-0.450000X-0.350000X0*%
%ADD15RoundRect,0.250000X-0.475000X0.337500X-0.475000X-0.337500X0.475000X-0.337500X0.475000X0.337500X0*%
%ADD16RoundRect,0.101600X1.349875X0.798830X-1.349875X0.798830X-1.349875X-0.798830X1.349875X-0.798830X0*%
%ADD17R,1.000000X2.032000*%
G04 APERTURE END LIST*
D10*
%TO.C,C4*%
X47400000Y-77100000D03*
X47400000Y-84500000D03*
%TD*%
D11*
%TO.C,J2*%
X57300000Y-74800000D03*
D12*
X57300000Y-77340000D03*
%TD*%
D11*
%TO.C,J4*%
X79600000Y-87375000D03*
D12*
X79600000Y-84835000D03*
%TD*%
D13*
%TO.C,R1*%
X41800000Y-82800000D03*
X41800000Y-84800000D03*
%TD*%
D11*
%TO.C,M5*%
X87300000Y-74100000D03*
D12*
X87300000Y-76640000D03*
X87300000Y-79180000D03*
%TD*%
D11*
%TO.C,J1*%
X56460000Y-87800000D03*
D12*
X59000000Y-87800000D03*
X61540000Y-87800000D03*
X64080000Y-87800000D03*
X66620000Y-87800000D03*
X69160000Y-87800000D03*
%TD*%
D14*
%TO.C,R4*%
X41000000Y-77500000D03*
X41000000Y-75500000D03*
%TD*%
D10*
%TO.C,C1*%
X98100000Y-74500000D03*
X98100000Y-81900000D03*
%TD*%
D15*
%TO.C,C5*%
X38900000Y-75462500D03*
X38900000Y-77537500D03*
%TD*%
%TO.C,C7*%
X74000000Y-85762500D03*
X74000000Y-87837500D03*
%TD*%
D14*
%TO.C,R3*%
X36900000Y-77500000D03*
X36900000Y-75500000D03*
%TD*%
D11*
%TO.C,M6*%
X91400000Y-74075000D03*
D12*
X91400000Y-76615000D03*
X91400000Y-79155000D03*
%TD*%
D11*
%TO.C,M2*%
X75000000Y-74100000D03*
D12*
X75000000Y-76640000D03*
X75000000Y-79180000D03*
%TD*%
D11*
%TO.C,J3*%
X87300000Y-84800000D03*
D12*
X87300000Y-87340000D03*
%TD*%
D11*
%TO.C,M1*%
X70900000Y-74100000D03*
D12*
X70900000Y-76640000D03*
X70900000Y-79180000D03*
%TD*%
D11*
%TO.C,J5*%
X91400000Y-84800000D03*
D12*
X91400000Y-87340000D03*
%TD*%
D11*
%TO.C,M3*%
X79100000Y-74100000D03*
D12*
X79100000Y-76640000D03*
X79100000Y-79180000D03*
%TD*%
D16*
%TO.C,S1*%
X58500000Y-83800000D03*
X65400000Y-83800000D03*
%TD*%
D13*
%TO.C,R2*%
X39700000Y-82800000D03*
X39700000Y-84800000D03*
%TD*%
D17*
%TO.C,SW1*%
X64100000Y-73100000D03*
X64100000Y-78900000D03*
X62100000Y-78900000D03*
X62100000Y-73100000D03*
X66100000Y-73100000D03*
X66100000Y-78900000D03*
%TD*%
D11*
%TO.C,M4*%
X83200000Y-74100000D03*
D12*
X83200000Y-76640000D03*
X83200000Y-79180000D03*
%TD*%
M02*
