%TF.GenerationSoftware,KiCad,Pcbnew,(6.0.7)*%
%TF.CreationDate,2022-10-27T13:02:41+02:00*%
%TF.ProjectId,UniMini,556e694d-696e-4692-9e6b-696361645f70,rev?*%
%TF.SameCoordinates,Original*%
%TF.FileFunction,Paste,Bot*%
%TF.FilePolarity,Positive*%
%FSLAX46Y46*%
G04 Gerber Fmt 4.6, Leading zero omitted, Abs format (unit mm)*
G04 Created by KiCad (PCBNEW (6.0.7)) date 2022-10-27 13:02:41*
%MOMM*%
%LPD*%
G01*
G04 APERTURE LIST*
G04 Aperture macros list*
%AMRoundRect*
0 Rectangle with rounded corners*
0 $1 Rounding radius*
0 $2 $3 $4 $5 $6 $7 $8 $9 X,Y pos of 4 corners*
0 Add a 4 corners polygon primitive as box body*
4,1,4,$2,$3,$4,$5,$6,$7,$8,$9,$2,$3,0*
0 Add four circle primitives for the rounded corners*
1,1,$1+$1,$2,$3*
1,1,$1+$1,$4,$5*
1,1,$1+$1,$6,$7*
1,1,$1+$1,$8,$9*
0 Add four rect primitives between the rounded corners*
20,1,$1+$1,$2,$3,$4,$5,0*
20,1,$1+$1,$4,$5,$6,$7,0*
20,1,$1+$1,$6,$7,$8,$9,0*
20,1,$1+$1,$8,$9,$2,$3,0*%
%AMFreePoly0*
4,1,9,3.862500,-0.866500,0.737500,-0.866500,0.737500,-0.450000,-0.737500,-0.450000,-0.737500,0.450000,0.737500,0.450000,0.737500,0.866500,3.862500,0.866500,3.862500,-0.866500,3.862500,-0.866500,$1*%
G04 Aperture macros list end*
%ADD10RoundRect,0.250000X0.350000X0.450000X-0.350000X0.450000X-0.350000X-0.450000X0.350000X-0.450000X0*%
%ADD11R,1.300000X0.900000*%
%ADD12FreePoly0,180.000000*%
%ADD13RoundRect,0.250000X-0.450000X0.350000X-0.450000X-0.350000X0.450000X-0.350000X0.450000X0.350000X0*%
%ADD14RoundRect,0.250000X-0.337500X-0.475000X0.337500X-0.475000X0.337500X0.475000X-0.337500X0.475000X0*%
%ADD15RoundRect,0.070692X0.719308X0.223858X-0.719308X0.223858X-0.719308X-0.223858X0.719308X-0.223858X0*%
%ADD16RoundRect,0.250000X-0.350000X-0.450000X0.350000X-0.450000X0.350000X0.450000X-0.350000X0.450000X0*%
%ADD17RoundRect,0.250000X0.475000X-0.337500X0.475000X0.337500X-0.475000X0.337500X-0.475000X-0.337500X0*%
%ADD18RoundRect,0.150000X-0.587500X-0.150000X0.587500X-0.150000X0.587500X0.150000X-0.587500X0.150000X0*%
%ADD19R,1.200000X2.000000*%
%ADD20R,1.700000X1.100000*%
%ADD21RoundRect,0.150000X0.587500X0.150000X-0.587500X0.150000X-0.587500X-0.150000X0.587500X-0.150000X0*%
%ADD22RoundRect,0.250000X0.450000X-0.350000X0.450000X0.350000X-0.450000X0.350000X-0.450000X-0.350000X0*%
G04 APERTURE END LIST*
D10*
%TO.C,R6*%
X84400000Y-84700000D03*
X82400000Y-84700000D03*
%TD*%
D11*
%TO.C,U2*%
X58850000Y-81800000D03*
D12*
X58762500Y-83300000D03*
D11*
X58850000Y-84800000D03*
%TD*%
D13*
%TO.C,R9*%
X54700000Y-73900000D03*
X54700000Y-75900000D03*
%TD*%
D14*
%TO.C,C2*%
X56762500Y-79700000D03*
X58837500Y-79700000D03*
%TD*%
D15*
%TO.C,U3*%
X76624600Y-84385000D03*
X76624600Y-85655000D03*
X76624600Y-86925000D03*
X76624600Y-88195000D03*
X71375400Y-88195000D03*
X71375400Y-86925000D03*
X71375400Y-85655000D03*
X71375400Y-84385000D03*
%TD*%
D16*
%TO.C,R7*%
X82400000Y-82700000D03*
X84400000Y-82700000D03*
%TD*%
D10*
%TO.C,R10*%
X96100000Y-84600000D03*
X94100000Y-84600000D03*
%TD*%
D13*
%TO.C,R5*%
X69100000Y-83000000D03*
X69100000Y-85000000D03*
%TD*%
D17*
%TO.C,C3*%
X60900000Y-84437500D03*
X60900000Y-82362500D03*
%TD*%
D18*
%TO.C,Q1*%
X82862500Y-88450000D03*
X82862500Y-86550000D03*
X84737500Y-87500000D03*
%TD*%
D14*
%TO.C,C6*%
X54462500Y-71900000D03*
X56537500Y-71900000D03*
%TD*%
D13*
%TO.C,R8*%
X54700000Y-77800000D03*
X54700000Y-79800000D03*
%TD*%
D19*
%TO.C,U1*%
X36800000Y-73200000D03*
X38800000Y-73200000D03*
X40800000Y-73200000D03*
X42800000Y-73200000D03*
X44800000Y-73200000D03*
X46800000Y-73200000D03*
X48800000Y-73200000D03*
X50800000Y-73200000D03*
D20*
X52300000Y-75700000D03*
X52300000Y-77700000D03*
X52300000Y-79700000D03*
X52300000Y-81700000D03*
X52300000Y-83700000D03*
X52300000Y-85700000D03*
D19*
X50800000Y-88200000D03*
X48800000Y-88200000D03*
X46800000Y-88200000D03*
X44800000Y-88200000D03*
X42800000Y-88200000D03*
X40800000Y-88200000D03*
X38800000Y-88200000D03*
X36800000Y-88200000D03*
%TD*%
D21*
%TO.C,Q2*%
X96137500Y-86350000D03*
X96137500Y-88250000D03*
X94262500Y-87300000D03*
%TD*%
D22*
%TO.C,R11*%
X98200000Y-88100000D03*
X98200000Y-86100000D03*
%TD*%
M02*
